<svg width="22" height="21" viewBox="0 0 22 21" fill="none" xmlns="http://www.w3.org/2000/svg">
<path fill-rule="evenodd" clip-rule="evenodd" d="M20.4531 20.9824H1.54688C1.0725 20.9824 0.6875 20.6 0.6875 20.123C0.6875 19.6504 1.0725 19.2637 1.54688 19.2637H20.4531C20.9275 19.2637 21.3125 19.6504 21.3125 20.123C21.3125 20.6 20.9275 20.9824 20.4531 20.9824Z" fill="white"/>
<path fill-rule="evenodd" clip-rule="evenodd" d="M15.8406 1.62895C15.8406 1.16401 16.2175 0.787109 16.6824 0.787109H20.4707C20.9356 0.787109 21.3125 1.16401 21.3125 1.62895V5.41721C21.3125 5.88214 20.9356 6.25905 20.4707 6.25905C20.0057 6.25905 19.6288 5.88214 19.6288 5.41721V3.66132L11.3848 11.9053C11.0561 12.2341 10.523 12.2341 10.1943 11.9053L7.84311 9.55418L2.12461 15.2727C1.79585 15.6014 1.26283 15.6014 0.934068 15.2727C0.605311 14.9439 0.605311 14.4109 0.934068 14.0821L7.24784 7.76837C7.5766 7.43961 8.10962 7.43961 8.43838 7.76837L10.7895 10.1195L18.4383 2.47078H16.6824C16.2175 2.47078 15.8406 2.09388 15.8406 1.62895Z" fill="white"/>
</svg>
