<svg width="14" height="14" viewBox="0 0 14 14" fill="none" xmlns="http://www.w3.org/2000/svg">
<path d="M3.67326 14C2.68836 14 1.76503 13.6361 1.07323 12.9752C0.381424 12.3144 0 11.4329 0 10.4925C0 9.55229 0.381146 8.67062 1.07323 8.01004L8.67775 0.748653C9.76575 -0.289713 11.4564 -0.243156 12.6101 0.858529C13.7639 1.96021 13.8135 3.5743 12.7255 4.61346L5.5815 11.4351C4.91087 12.0754 3.8187 12.0765 3.14696 11.4351C2.47578 10.7939 2.47605 9.75102 3.14696 9.11039L7.98623 4.48949C8.1495 4.33359 8.4139 4.33359 8.57717 4.48949C8.74044 4.64539 8.74044 4.89786 8.57717 5.05376L3.7379 9.67467C3.3927 10.0043 3.3927 10.5409 3.7379 10.8708C4.08366 11.2004 4.64535 11.1999 4.99056 10.8708L12.1345 4.04919C12.8854 3.33193 12.8361 2.20285 12.0192 1.42281C11.2023 0.642768 10.0198 0.595678 9.26869 1.31293L1.66417 8.57432C1.13006 9.08432 0.835846 9.76566 0.835846 10.4925C0.835846 11.2196 1.13006 11.9009 1.66417 12.4109C2.19827 12.9209 2.91181 13.2019 3.67326 13.2019C4.43444 13.2019 5.14797 12.9209 5.68208 12.4109L13.2866 5.14954C13.4499 4.99364 13.7143 4.99364 13.8775 5.14954C14.0408 5.30544 14.0408 5.55792 13.8775 5.71382L6.27302 12.9752C5.58122 13.6358 4.65789 14 3.67326 14Z" fill="#2CCDA0"/>
</svg>
