<svg width="20" height="21" viewBox="0 0 20 21" fill="none" xmlns="http://www.w3.org/2000/svg">
<g clip-path="url(#clip0)">
<path fill-rule="evenodd" clip-rule="evenodd" d="M6.88757 1.86504C6.88757 1.47844 7.20097 1.16504 7.58757 1.16504H13.8957C14.0814 1.16504 14.2595 1.23881 14.3908 1.37011L18.4051 5.38512C18.5363 5.5164 18.61 5.69442 18.61 5.88005V16.2044C18.61 16.591 18.2966 16.9044 17.91 16.9044H7.58757C7.20097 16.9044 6.88757 16.591 6.88757 16.2044V1.86504ZM8.28757 2.56504V15.5044H17.21V6.16997L13.6058 2.56504H8.28757Z" fill="#293248"/>
<path fill-rule="evenodd" clip-rule="evenodd" d="M2.30005 6.24297C2.30005 5.85637 2.61345 5.54297 3.00005 5.54297H7.58781V6.94297H3.70005V19.1653H12.3358V16.204H13.7358V19.8646C13.7358 20.2512 13.4224 20.5653 13.0358 20.5653H3.00005C2.61345 20.5653 2.30005 20.2519 2.30005 19.8653V6.24297Z" fill="#293248"/>
<path fill-rule="evenodd" clip-rule="evenodd" d="M15.5522 9.12795C15.8174 9.40921 15.8044 9.85224 15.5231 10.1175L12.7861 12.6986C12.5165 12.9529 12.0953 12.9529 11.8256 12.6986L10.2616 11.2236C9.98036 10.9584 9.96737 10.5154 10.2326 10.2341C10.4978 9.95286 10.9409 9.93987 11.2221 10.2051L12.3059 11.2271L14.5626 9.09894C14.8439 8.8337 15.2869 8.84669 15.5522 9.12795Z" fill="#293248"/>
<path fill-rule="evenodd" clip-rule="evenodd" d="M13.6277 1.21833C13.8893 1.10999 14.1904 1.1699 14.3906 1.37013L18.4049 5.38515C18.605 5.58536 18.6649 5.88643 18.5565 6.14799C18.4482 6.40955 18.193 6.58008 17.9098 6.58008H13.8956C13.509 6.58008 13.1956 6.26668 13.1956 5.88008V1.86506C13.1956 1.58192 13.3661 1.32667 13.6277 1.21833ZM14.5956 3.55523V5.18008H16.2201L14.5956 3.55523Z" fill="#293248"/>
</g>
<defs>
<clipPath id="clip0">
<rect width="20" height="20" fill="white" transform="translate(0 0.865234)"/>
</clipPath>
</defs>
</svg>
