<svg width="20" height="20" viewBox="0 0 20 20" fill="none" xmlns="http://www.w3.org/2000/svg">
<path d="M1 7.47061V15.4127C1 16.6249 1.98449 17.6094 3.19673 17.6094H16.8033C18.0155 17.6094 19 16.6249 19 15.4127V7.47061C19 6.31714 18.0633 5.38041 16.9098 5.38041H13.9857L13.9159 5.07551C13.6331 3.85224 12.5567 3 11.3004 3H8.69592C7.44326 3 6.36694 3.85224 6.08041 5.07551L6.01061 5.38041H3.0902C1.93673 5.38041 1 6.32082 1 7.47061ZM6.37061 6.28041C6.58 6.28041 6.76 6.13714 6.80775 5.93143L6.95837 5.27755C7.14939 4.46571 7.86204 3.9 8.69592 3.9H11.3004C12.1343 3.9 12.8469 4.46571 13.038 5.27755L13.1886 5.93143C13.2363 6.13347 13.4163 6.28041 13.6257 6.28041H16.9061C17.5637 6.28041 18.0963 6.81306 18.0963 7.47061V15.4127C18.0963 16.129 17.5159 16.7094 16.7996 16.7094H3.19673C2.48041 16.7094 1.9 16.129 1.9 15.4127V7.47061C1.9 6.81306 2.43265 6.28041 3.0902 6.28041H6.37061Z" fill="white"/>
<path d="M4.04544 8.80451C4.37817 8.80451 4.64789 8.53478 4.64789 8.20206C4.64789 7.86933 4.37817 7.59961 4.04544 7.59961C3.71272 7.59961 3.44299 7.86933 3.44299 8.20206C3.44299 8.53478 3.71272 8.80451 4.04544 8.80451Z" fill="white"/>
<path d="M9.99997 15.2993C12.0828 15.2993 13.78 13.6021 13.78 11.5193C13.78 9.4364 12.0828 7.73926 9.99997 7.73926C7.91711 7.73926 6.21997 9.43273 6.21997 11.5193C6.21997 13.6058 7.91711 15.2993 9.99997 15.2993ZM9.99997 8.63926C11.5869 8.63926 12.88 9.93232 12.88 11.5193C12.88 13.1062 11.5869 14.3993 9.99997 14.3993C8.41303 14.3993 7.11997 13.1062 7.11997 11.5193C7.11997 9.93232 8.41303 8.63926 9.99997 8.63926Z" fill="white"/>
</svg>
