<svg width="15" height="15" viewBox="0 0 15 15" fill="none" xmlns="http://www.w3.org/2000/svg">
<path d="M1.72179 2.97787C1.36523 2.62131 1.36523 2.0432 1.72179 1.68663C2.07836 1.33007 2.65646 1.33007 3.01303 1.68664L13.104 11.7777C13.4606 12.1342 13.4606 12.7123 13.104 13.0689C12.7475 13.4255 12.1694 13.4255 11.8128 13.0689L1.72179 2.97787Z" fill="#ffffff"/>
<path d="M1.64562 11.82C1.28905 12.1765 1.28905 12.7547 1.64562 13.1112C2.00219 13.4678 2.58029 13.4678 2.93686 13.1112L13.1108 2.9373C13.4673 2.58074 13.4673 2.00263 13.1108 1.64606C12.7542 1.2895 12.1761 1.2895 11.8195 1.64606L1.64562 11.82Z" fill="#ffffff"/>
</svg>
