<svg width="16" height="16" viewBox="0 0 16 16" fill="none" xmlns="http://www.w3.org/2000/svg">
<path fill-rule="evenodd" clip-rule="evenodd" d="M16 8C16 12.4183 12.4183 16 8 16C3.58172 16 0 12.4183 0 8C0 3.58172 3.58172 0 8 0C12.4183 0 16 3.58172 16 8ZM4.64457 5.40041C4.43586 5.1917 4.43586 4.85332 4.64457 4.64461C4.85327 4.4359 5.19166 4.4359 5.40036 4.64461L7.99998 7.24423L10.5997 4.64451C10.8084 4.4358 11.1468 4.4358 11.3555 4.64451C11.5642 4.85322 11.5642 5.1916 11.3555 5.40031L8.75578 8.00003L11.3069 10.5512C11.5156 10.7599 11.5156 11.0982 11.3069 11.307C11.0982 11.5157 10.7598 11.5157 10.5511 11.307L7.99998 8.75582L5.40043 11.3554C5.19172 11.5641 4.85334 11.5641 4.64463 11.3554C4.43592 11.1467 4.43592 10.8083 4.64463 10.5996L7.24418 8.00003L4.64457 5.40041Z" fill="#748AA1"/>
</svg>
