<svg width="13" height="13" viewBox="0 0 13 13" fill="none" xmlns="http://www.w3.org/2000/svg">
<path d="M5.81472 6.8H2.44428C2.0884 6.8 1.79994 7.08849 1.79994 7.44434C1.79994 7.80018 2.0884 8.08868 2.44428 8.08868H5.17038V10.8148C5.17038 11.1706 5.45884 11.4591 5.81472 11.4591C6.1706 11.4591 6.45906 11.1706 6.45906 10.8148V7.44434C6.45906 7.08849 6.1706 6.8 5.81472 6.8Z" fill="#2CCDA0" stroke="#2CCDA0" stroke-width="0.4"/>
<path d="M8.0887 5.17044H10.8148C11.1706 5.17044 11.4591 5.45888 11.4591 5.81478L8.0887 5.17044ZM8.0887 5.17044V2.44434C8.0887 2.08846 7.80021 1.8 7.44436 1.8C7.0885 1.8 6.8 2.08845 6.8 2.44434V5.81478C6.8 6.17066 7.08849 6.45912 7.44434 6.45912H10.8148C11.1706 6.45912 11.4591 6.17067 11.4591 5.8148L8.0887 5.17044Z" fill="#2CCDA0" stroke="#2CCDA0" stroke-width="0.4"/>
<path d="M12.0111 0.988734L12.0111 0.988725C11.7594 0.737092 11.3515 0.737092 11.0998 0.988725L7.16766 4.9209L7.16766 4.92091C6.91605 5.17254 6.91605 5.5805 7.16766 5.83213L7.16766 5.83214C7.29343 5.9579 7.4587 6.02087 7.62329 6.02087C7.78786 6.02087 7.95313 5.95793 8.07892 5.83214L7.9375 5.69072L8.07892 5.83214L12.0111 1.89996L12.0111 1.89996C12.2627 1.64832 12.2627 1.24037 12.0111 0.988734Z" fill="#2CCDA0" stroke="#2CCDA0" stroke-width="0.4"/>
<path d="M0.988481 11.1001L0.988482 11.1001L4.92065 7.16792C5.17228 6.9163 5.58027 6.91628 5.83189 7.16792C5.8319 7.16793 5.8319 7.16793 5.8319 7.16793L5.69047 7.30935C5.864 7.48288 5.864 7.76421 5.69047 7.93772L0.988481 11.1001ZM0.988481 11.1001C0.736859 11.3517 0.736847 11.7596 0.988446 12.0113C1.11425 12.1371 1.27955 12.2 1.44409 12.2C1.60868 12.2 1.77393 12.1371 1.89972 12.0113L5.83188 8.07915L0.988481 11.1001Z" fill="#2CCDA0" stroke="#2CCDA0" stroke-width="0.4"/>
</svg>
