<svg width="15" height="15" viewBox="0 0 15 15" fill="none" xmlns="http://www.w3.org/2000/svg">
<path d="M6.50834 7.95H2.52512C2.20747 7.95 1.95 8.2075 1.95 8.52512C1.95 8.84275 2.20747 9.10025 2.52512 9.10025H5.93322V12.5083C5.93322 12.826 6.19069 13.0835 6.50834 13.0835C6.82599 13.0835 7.08347 12.826 7.08347 12.5083V8.52512C7.08347 8.2075 6.82599 7.95 6.50834 7.95Z" fill="#2CCDA0" stroke="#2CCDA0" stroke-width="0.1"/>
<path d="M12.5083 5.93322H9.10027V2.52512C9.10027 2.20747 8.84277 1.95 8.52515 1.95C8.2075 1.95 7.95 2.20747 7.95 2.52512V6.50834C7.95 6.82599 8.2075 7.08347 8.52512 7.08347H12.5083C12.826 7.08347 13.0835 6.82599 13.0835 6.50834C13.0835 6.19069 12.826 5.93322 12.5083 5.93322Z" fill="#2CCDA0" stroke="#2CCDA0" stroke-width="0.1"/>
<path d="M13.8818 1.11846L13.8818 1.11845C13.6572 0.893849 13.2931 0.893849 13.0685 1.11845L8.42141 5.76553L8.42141 5.76553C8.19683 5.99014 8.19683 6.35428 8.42141 6.57888L8.42141 6.57888C8.53369 6.69116 8.68099 6.74734 8.8281 6.74734C8.97519 6.74734 9.12249 6.69119 9.23479 6.57888L13.8818 1.93181L13.8465 1.89645L13.8818 1.93181C14.1064 1.7072 14.1064 1.34306 13.8818 1.11846Z" fill="#2CCDA0" stroke="#2CCDA0" stroke-width="0.1"/>
<path d="M6.57913 8.42119C6.35455 8.19658 5.99038 8.19659 5.76577 8.42119L6.57913 8.42119C6.57913 8.42119 6.57913 8.42119 6.57913 8.42119ZM6.57913 8.42119C6.80373 8.64579 6.80373 9.00994 6.57913 9.23452L1.93205 13.8816C1.81975 13.9939 1.67247 14.0501 1.52536 14.0501C1.37829 14.0501 1.23099 13.9939 1.1187 13.8816C1.11869 13.8816 1.11869 13.8816 1.11869 13.8816L1.15405 13.8462L6.57913 8.42119Z" fill="#2CCDA0" stroke="#2CCDA0" stroke-width="0.1"/>
</svg>
