<svg width="30" height="30" viewBox="0 0 30 30" fill="none" xmlns="http://www.w3.org/2000/svg">
<path fill-rule="evenodd" clip-rule="evenodd" d="M18.3753 10.7503V14.5516C18.3753 16.2355 17.0103 17.6005 15.3264 17.6005C13.6425 17.6005 12.2775 16.2355 12.2775 14.5516V9.1712C12.2775 8.79677 12.345 8.43812 12.4684 8.10672C12.4792 8.11283 12.4904 8.11917 12.5019 8.12575C12.6382 8.20325 12.8295 8.31293 13.0493 8.44135C13.4911 8.69961 14.0383 9.02811 14.4825 9.32134C15.0986 9.72799 16.0636 10.1076 16.9925 10.3911C17.4521 10.5314 17.9268 10.6554 18.3753 10.7503ZM18.3753 9.28006V9.1712C18.3753 7.48733 17.0103 6.12228 15.3264 6.12228C14.5366 6.12228 13.817 6.42255 13.2755 6.91515C13.4087 6.99119 13.5803 7.08986 13.7733 7.20262C14.2219 7.46486 14.7957 7.80892 15.2729 8.12389C15.7131 8.41445 16.5184 8.74627 17.4114 9.01884C17.7395 9.11899 18.0661 9.20711 18.3753 9.28006ZM10.8427 9.1712C10.8427 6.69492 12.8501 4.6875 15.3264 4.6875C17.8027 4.6875 19.8101 6.69492 19.8101 9.1712V9.21654C20.3797 8.63527 21.1737 8.27461 22.0518 8.27461C23.7852 8.27461 25.1904 9.67981 25.1904 11.4132V14.1034C25.1904 15.078 24.7462 15.9489 24.0491 16.5246H24.293C26.6702 16.5246 28.5974 18.4517 28.5974 20.8289C28.5974 21.7204 27.8747 22.4431 26.9832 22.4431H23.3965V24.4298C23.3965 24.9173 22.9749 25.3125 22.4549 25.3125H8.19677C7.67675 25.3125 7.2552 24.9173 7.2552 24.4298V22.4431H3.48937C2.59792 22.4431 1.87524 21.7204 1.87524 20.8289C1.87524 18.4517 3.80237 16.5246 6.17959 16.5246H6.60336C5.90633 15.9489 5.46209 15.078 5.46209 14.1034V11.4132C5.46209 9.67981 6.86728 8.27461 8.60067 8.27461C9.47898 8.27461 10.273 8.63538 10.8427 9.21682V9.1712ZM26.9832 21.0083H23.3965V20.6771C23.3965 19.5714 22.8393 18.5877 21.9737 17.9594H24.293C25.8778 17.9594 27.1626 19.2441 27.1626 20.8289C27.1626 20.928 27.0823 21.0083 26.9832 21.0083ZM15.3264 19.0353C15.7614 19.0353 16.182 18.9734 16.5797 18.8578L15.3258 20.2684L14.0716 18.8574C14.4698 18.9732 14.8908 19.0353 15.3264 19.0353ZM6.17959 17.9594H8.67797C7.81243 18.5877 7.2552 19.5714 7.2552 20.6771V21.0083H3.48937C3.39032 21.0083 3.31003 20.928 3.31003 20.8289C3.31003 19.2441 4.59477 17.9594 6.17959 17.9594ZM11.299 16.5246C11.2187 16.361 11.1481 16.1919 11.0879 16.0179C10.944 16.2046 10.7796 16.3746 10.598 16.5246H11.299ZM19.3538 16.5246H20.0545C19.873 16.3747 19.7086 16.2047 19.5648 16.0181C19.5046 16.1921 19.434 16.3611 19.3538 16.5246ZM6.89687 11.4132V14.1034C6.89687 15.0444 7.65969 15.8072 8.60067 15.8072C9.54166 15.8072 10.3045 15.0444 10.3045 14.1034V11.4132C10.3045 10.4722 9.54166 9.70939 8.60067 9.70939C7.65969 9.70939 6.89687 10.4722 6.89687 11.4132ZM23.7556 14.1034V11.4132C23.7556 10.4722 22.9928 9.70939 22.0518 9.70939C21.1108 9.70939 20.348 10.4722 20.348 11.4132V14.1034C20.348 15.0444 21.1108 15.8072 22.0518 15.8072C22.9928 15.8072 23.7556 15.0444 23.7556 14.1034ZM15.3258 22.4746L12.577 19.3821C12.167 18.9209 11.5598 18.6543 10.9194 18.6543C9.72775 18.6543 8.76172 19.5599 8.76172 20.6771V23.9002H21.89V20.6771C21.89 19.5599 20.924 18.6543 19.7323 18.6543C19.0919 18.6543 18.4847 18.9209 18.0747 19.3821L15.3258 22.4746Z" fill="white"/>
</svg>
