<svg width="16" height="13" viewBox="0 0 16 13" fill="none" xmlns="http://www.w3.org/2000/svg">
<path d="M0.5 4C0.5 2.067 2.067 0.5 4 0.5H12C13.933 0.5 15.5 2.067 15.5 4V5.5C15.5 7.433 13.933 9 12 9H3.45994C3.02205 9 2.60602 9.19134 2.32105 9.52381L0.675926 11.4431C0.655433 11.467 0.638126 11.4741 0.625339 11.4771C0.609372 11.4807 0.58804 11.4802 0.565305 11.4718C0.542571 11.4634 0.526053 11.4499 0.516326 11.4367C0.508537 11.4262 0.5 11.4095 0.5 11.378V4Z" stroke="#2CCDA0"/>
<path d="M4 3C3.72386 3 3.5 3.22386 3.5 3.5C3.5 3.77614 3.72386 4 4 4V3ZM11.5 4C11.7761 4 12 3.77614 12 3.5C12 3.22386 11.7761 3 11.5 3V4ZM4 4H11.5V3H4V4Z" fill="#2CCDA0"/>
<path d="M4 5.5C3.72386 5.5 3.5 5.72386 3.5 6C3.5 6.27614 3.72386 6.5 4 6.5V5.5ZM11.5 6.5C11.7761 6.5 12 6.27614 12 6C12 5.72386 11.7761 5.5 11.5 5.5V6.5ZM4 6.5H11.5V5.5H4V6.5Z" fill="#2CCDA0"/>
</svg>
