<svg width="20" height="20" viewBox="0 0 20 20" fill="none" xmlns="http://www.w3.org/2000/svg">
<path fill-rule="evenodd" clip-rule="evenodd" d="M4.20355 1.30116C4.40396 1.28868 4.60009 1.36287 4.74206 1.50488L6.02641 2.78946L13.3061 5.51984C13.489 5.58843 13.6349 5.7303 13.7086 5.91118L18.811 18.4375C18.9125 18.6867 18.8622 18.9721 18.6815 19.1715C18.5008 19.371 18.2218 19.4492 17.9638 19.3727L5.43971 15.6612C5.24187 15.6026 5.07998 15.4597 4.99728 15.2706L1.80322 7.9686L0.505036 6.67018C0.255464 6.42057 0.230787 6.02419 0.447471 5.74554L3.69446 1.5701C3.81773 1.41158 4.00313 1.31364 4.20355 1.30116ZM3.19983 7.66805L6.14952 14.4114L16.9649 17.6165L12.5276 6.72307L5.87502 4.22791L3.19983 7.66805ZM4.70675 3.44964L4.31277 3.05559L1.93191 6.11724L2.32589 6.51129L4.70675 3.44964Z" fill="#293248"/>
<path fill-rule="evenodd" clip-rule="evenodd" d="M9.28845 10.815C9.54425 10.5251 9.98661 10.4975 10.2765 10.7533L18.162 17.7124C18.4519 17.9682 18.4795 18.4106 18.2237 18.7004C17.9679 18.9903 17.5255 19.0179 17.2356 18.7621L9.35011 11.803C9.06024 11.5472 9.03264 11.1048 9.28845 10.815Z" fill="#293248"/>
</svg>
