<svg width="15" height="18" viewBox="0 0 15 18" fill="none" xmlns="http://www.w3.org/2000/svg">
<path d="M2.15757 17.0492H10.7588C11.425 17.0492 11.9664 16.5073 11.9664 15.8412V14.0794C11.9664 14.0718 11.9662 14.0603 11.9634 14.0501C11.9626 14.0471 11.961 14.0421 11.9579 14.0367C11.955 14.0317 11.9485 14.0221 11.9359 14.0159C11.9034 13.9998 11.879 14.0233 11.8759 14.0265C11.87 14.0326 11.8664 14.039 11.8649 14.0419C11.8637 14.0442 11.8625 14.0466 11.8615 14.049C11.8609 14.0503 11.8603 14.0517 11.8598 14.053C11.8569 14.06 11.8538 14.0685 11.8508 14.0775C11.8455 14.0932 11.8393 14.1133 11.8324 14.1355L11.8291 14.1461C11.8208 14.1728 11.8114 14.2025 11.8011 14.2332C11.7804 14.295 11.7565 14.3579 11.731 14.4047C11.7182 14.4282 11.7064 14.445 11.6961 14.4554C11.6903 14.4612 11.6866 14.4634 11.6849 14.4642C11.6832 14.4634 11.6795 14.4612 11.6737 14.4554C11.6634 14.445 11.6515 14.4282 11.6387 14.4047C11.6132 14.3579 11.5894 14.295 11.5686 14.2332C11.5583 14.2025 11.5489 14.1728 11.5406 14.1461L11.5373 14.1355C11.5305 14.1133 11.5242 14.0932 11.5189 14.0775C11.5159 14.0685 11.5129 14.06 11.51 14.053C11.5085 14.0495 11.5068 14.0456 11.5048 14.0419C11.5033 14.039 11.4997 14.0326 11.4938 14.0265C11.4907 14.0233 11.4663 13.9998 11.4338 14.0159C11.4212 14.0221 11.4147 14.0317 11.4118 14.0367C11.4087 14.0421 11.4071 14.0471 11.4063 14.0501C11.4035 14.0603 11.4033 14.0718 11.4033 14.0794V15.8412C11.4033 16.1965 11.1141 16.4857 10.7588 16.4857H2.15757C1.80226 16.4857 1.51303 16.1965 1.51303 15.8412V4.64048C1.51303 4.28517 1.80226 3.99594 2.15757 3.99594H3.25217C3.40758 3.99594 3.53369 3.86983 3.53369 3.71442C3.53369 3.55901 3.40758 3.43291 3.25217 3.43291H2.15757C1.49143 3.43291 0.95 3.97483 0.95 4.64048V15.8416C0.95 16.5073 1.49143 17.0492 2.15757 17.0492Z" fill="#293248" stroke="#293248" stroke-width="0.1"/>
<path d="M4.47276 14.5651H13.074C13.7401 14.5651 14.2816 14.0236 14.2816 13.3575V4.54653C14.2816 4.39112 14.1555 4.26502 14 4.26502C13.8446 4.26502 13.7185 4.39112 13.7185 4.54653V13.3575C13.7185 13.7128 13.4293 14.0021 13.074 14.0021H4.47276C4.11745 14.0021 3.82821 13.7128 3.82821 13.3575V2.15684C3.82821 1.80153 4.11745 1.5123 4.47276 1.5123H10.7723C10.9278 1.5123 11.0533 1.38606 11.0533 1.23078C11.0533 1.07537 10.9272 0.949268 10.7718 0.949268H4.47276C3.80661 0.949268 3.26519 1.49118 3.26519 2.15684V13.3575C3.26519 14.0232 3.80661 14.5651 4.47276 14.5651Z" fill="#293248" stroke="#293248" stroke-width="0.1"/>
<path d="M10.7718 4.82816H14C14.156 4.82816 14.2816 4.70199 14.2816 4.54664C14.2816 4.39123 14.1554 4.26513 14 4.26513H11.0533V1.31794C11.0533 1.16253 10.9272 1.03643 10.7718 1.03643C10.6164 1.03643 10.4903 1.16253 10.4903 1.31794V4.54664C10.4903 4.70205 10.6164 4.82816 10.7718 4.82816Z" fill="#293248" stroke="#293248" stroke-width="0.1"/>
<path d="M13.7986 4.74307L13.7987 4.74319L10.9741 1.0349L10.9382 1.06971L10.974 1.03483L10.974 1.03486C10.8663 0.923737 10.6869 0.921652 10.576 1.02918L10.576 1.02918L10.5759 1.02927C10.4645 1.1379 10.4622 1.31581 10.5703 1.42725L10.5704 1.42732L13.7986 4.74307Z" fill="#293248" stroke="#293248" stroke-width="0.1"/>
</svg>
