<svg width="30" height="30" viewBox="0 0 30 30" fill="none" xmlns="http://www.w3.org/2000/svg">
<path fill-rule="evenodd" clip-rule="evenodd" d="M9.33875 7.16501C7.37124 9.19075 6.15799 11.953 6.15799 15C6.15799 18.2782 7.56107 21.2281 9.79849 23.2843C5.40903 23.2037 1.875 19.6226 1.875 15.2139C1.875 10.9602 5.16498 7.47738 9.3387 7.16502C11.3831 5.05985 14.2418 3.75 17.408 3.75C23.6211 3.75 28.6579 8.78675 28.6579 15C28.6579 21.2131 23.6211 26.25 17.408 26.25C14.4732 26.25 11.8015 25.1252 9.79852 23.2843C9.84879 23.2852 9.89868 23.2881 9.9492 23.2881C14.4085 23.2881 18.0235 19.6731 18.0235 15.214C18.0235 10.7545 14.4085 7.13966 9.9492 7.13966C9.74358 7.13966 9.54049 7.14989 9.33866 7.16505L9.33875 7.16501Z" fill="white"/>
</svg>
