<svg width="300" height="56" viewBox="0 0 300 56" fill="none" xmlns="http://www.w3.org/2000/svg">
<path fill-rule="evenodd" clip-rule="evenodd" d="M37.9824 0C30.2401 0 23.2498 3.20385 18.2506 8.353C18.7442 8.31593 19.2408 8.29091 19.7436 8.29091C30.6478 8.29091 39.4874 17.1326 39.4874 28.0401C39.4874 38.947 30.6478 47.789 19.7436 47.789C19.62 47.789 19.4981 47.7819 19.3751 47.7798C24.273 52.2823 30.8059 55.0336 37.9824 55.0336C53.1751 55.0336 65.4913 42.7137 65.4913 27.5168C65.4913 12.3196 53.1751 0 37.9824 0Z" fill="white"/>
<path fill-rule="evenodd" clip-rule="evenodd" d="M10.4731 27.5167C10.4731 20.0639 13.4398 13.3077 18.2509 8.35291C8.04496 9.11687 1.90735e-06 17.6358 1.90735e-06 28.04C1.90735e-06 38.8233 8.64164 47.5826 19.375 47.7797C13.904 42.7504 10.4731 35.5352 10.4731 27.5167Z" fill="white"/>
<path fill-rule="evenodd" clip-rule="evenodd" d="M96.6118 34.3809C96.7777 34.3809 96.92 34.4455 97.0402 34.5746L98.2002 35.8452C97.3898 36.8035 96.4024 37.5446 95.2381 38.0692C94.0729 38.5943 92.6713 38.8566 91.0329 38.8566C89.5965 38.8566 88.296 38.6082 87.1317 38.1106C85.9664 37.6135 84.9723 36.9181 84.1489 36.025C83.3246 35.1319 82.6869 34.0636 82.236 32.8202C81.7847 31.5771 81.5593 30.2098 81.5593 28.7177C81.5593 27.2259 81.7962 25.8583 82.2702 24.6149C82.7446 23.3718 83.4099 22.3038 84.266 21.4104C85.1221 20.517 86.1462 19.8219 87.3386 19.3246C88.5307 18.8272 89.8495 18.5785 91.2952 18.5785C92.7038 18.5785 93.9555 18.8087 95.0513 19.2693C96.1467 19.7299 97.0998 20.3422 97.9099 21.1064L96.9432 22.474C96.8787 22.5754 96.7984 22.6582 96.7017 22.7224C96.605 22.787 96.4781 22.8191 96.3221 22.8191C96.1467 22.8191 95.9419 22.732 95.7072 22.5568C95.4725 22.382 95.164 22.1861 94.7819 21.9696C94.3999 21.7536 93.9283 21.5578 93.3665 21.3826C92.8051 21.2078 92.1052 21.12 91.2674 21.12C90.2822 21.12 89.38 21.2927 88.561 21.6381C87.741 21.9835 87.0347 22.4808 86.4411 23.1302C85.8472 23.7792 85.3867 24.576 85.06 25.5197C84.7329 26.4638 84.5699 27.5296 84.5699 28.7177C84.5699 29.9244 84.74 30.997 85.0807 31.9364C85.4213 32.8752 85.8908 33.6722 86.4893 34.3262C87.0875 34.9796 87.792 35.4773 88.6021 35.8177C89.4122 36.1581 90.2871 36.3287 91.2263 36.3287C91.7967 36.3287 92.31 36.2944 92.7658 36.2255C93.2214 36.1563 93.6405 36.0528 94.0225 35.9147C94.4045 35.7766 94.7659 35.599 95.1065 35.3824C95.4472 35.1665 95.7832 34.9058 96.1149 34.6021C96.1884 34.5378 96.2668 34.4847 96.3493 34.443C96.4324 34.4022 96.5198 34.3809 96.6118 34.3809Z" fill="white"/>
<path fill-rule="evenodd" clip-rule="evenodd" d="M116.387 36.1633V38.6356H105.035V18.7993H107.977V36.1633H116.387Z" fill="white"/>
<path fill-rule="evenodd" clip-rule="evenodd" d="M123.126 38.6357H126.082V18.7997H123.126V38.6357Z" fill="white"/>
<path fill-rule="evenodd" clip-rule="evenodd" d="M147.141 36.2458L147.128 38.6357H134.837V18.7993H147.128V21.1892H137.792V27.4742H145.305V29.7813H137.792V36.2458H147.141Z" fill="white"/>
<path fill-rule="evenodd" clip-rule="evenodd" d="M170.88 18.7994V38.6354H169.389C169.159 38.6354 168.967 38.5943 168.816 38.5112C168.664 38.4288 168.509 38.2953 168.353 38.1106L157.153 23.6202C157.171 23.8692 157.188 24.1132 157.202 24.3526C157.215 24.592 157.222 24.8176 157.222 25.0295V38.6354H154.64V18.7994H156.159C156.417 18.7994 156.61 18.8294 156.739 18.8893C156.868 18.9492 157.01 19.0849 157.167 19.2968L168.394 33.8014C168.366 33.5339 168.346 33.2737 168.332 33.0204C168.318 32.7671 168.311 32.5299 168.311 32.3093V18.7994H170.88Z" fill="white"/>
<path fill-rule="evenodd" clip-rule="evenodd" d="M193.169 21.2583H186.871V38.6356H183.943V21.2583H177.619V18.7996H193.169V21.2583Z" fill="white"/>
<path fill-rule="evenodd" clip-rule="evenodd" d="M210.086 22.0318C209.993 22.1887 209.897 22.3036 209.796 22.3772C209.694 22.451 209.565 22.4878 209.409 22.4878C209.243 22.4878 209.054 22.4118 208.843 22.2598C208.631 22.1078 208.367 21.9376 208.048 21.7488C207.731 21.5601 207.351 21.3895 206.909 21.2375C206.467 21.0856 205.938 21.0096 205.321 21.0096C204.741 21.0096 204.232 21.0856 203.795 21.2375C203.358 21.3895 202.992 21.5968 202.697 21.8591C202.403 22.1217 202.18 22.4303 202.028 22.7846C201.875 23.1393 201.799 23.5239 201.799 23.9382C201.799 24.4723 201.936 24.9144 202.207 25.2644C202.479 25.6144 202.835 25.9134 203.277 26.1621C203.719 26.4108 204.221 26.627 204.783 26.8115C205.344 26.9956 205.92 27.1865 206.509 27.3845C207.098 27.5825 207.673 27.8105 208.235 28.0685C208.796 28.3261 209.298 28.6508 209.74 29.0422C210.182 29.4339 210.539 29.9124 210.811 30.4787C211.082 31.0453 211.218 31.7382 211.218 32.5578C211.218 33.4326 211.068 34.2525 210.769 35.0165C210.47 35.7811 210.035 36.4484 209.464 37.0196C208.893 37.5908 208.191 38.0396 207.358 38.3665C206.525 38.6933 205.579 38.8567 204.52 38.8567C203.885 38.8567 203.268 38.7946 202.669 38.6701C202.071 38.5459 201.505 38.3711 200.971 38.1456C200.437 37.9198 199.938 37.6479 199.473 37.3303C199.008 37.0128 198.591 36.6556 198.223 36.2596L199.065 34.8512C199.148 34.7403 199.247 34.6483 199.362 34.5747C199.477 34.5012 199.608 34.4644 199.756 34.4644C199.949 34.4644 200.172 34.5658 200.426 34.7678C200.679 34.9705 200.992 35.1938 201.365 35.4379C201.737 35.6822 202.184 35.9056 202.704 36.1076C203.224 36.3103 203.857 36.4116 204.603 36.4116C205.211 36.4116 205.754 36.3313 206.232 36.1697C206.711 36.0088 207.114 35.7789 207.441 35.4793C207.768 35.1802 208.019 34.8188 208.194 34.3949C208.368 33.9714 208.456 33.5021 208.456 32.9862C208.456 32.4058 208.322 31.9316 208.056 31.5633C207.789 31.1948 207.434 30.8862 206.992 30.6378C206.55 30.3888 206.048 30.1769 205.487 30.002C204.925 29.8275 204.35 29.6455 203.761 29.4568C203.171 29.2677 202.596 29.0493 202.035 28.8006C201.473 28.5519 200.971 28.2273 200.529 27.8266C200.087 27.4262 199.733 26.9242 199.466 26.3209C199.199 25.7179 199.065 24.974 199.065 24.0901C199.065 23.3812 199.204 22.6947 199.479 22.0318C199.756 21.3688 200.158 20.7819 200.688 20.2706C201.217 19.7593 201.869 19.3497 202.642 19.0411C203.415 18.7328 204.299 18.5783 205.294 18.5783C206.407 18.5783 207.432 18.756 208.367 19.1103C209.3 19.4649 210.113 19.9734 210.804 20.6367L210.086 22.0318Z" fill="white"/>
<path fill-rule="evenodd" clip-rule="evenodd" d="M234.956 18.7994V38.6354H232.015V29.6983H221.671V38.6354H218.716V18.7994H221.671V27.5574H232.015V18.7994H234.956Z" fill="white"/>
<path fill-rule="evenodd" clip-rule="evenodd" d="M254.262 31.2455L251.321 23.5511C251.109 23.0266 250.897 22.3633 250.685 21.5623C250.584 21.9583 250.481 22.3269 250.375 22.6673C250.269 23.008 250.165 23.312 250.064 23.5789L247.137 31.2455H254.262ZM260.076 38.6356H257.811C257.553 38.6356 257.342 38.5713 257.176 38.4425C257.01 38.3134 256.891 38.1475 256.817 37.9451L255.063 33.345H246.322L244.567 37.9451C244.503 38.12 244.384 38.2791 244.209 38.4215C244.034 38.5642 243.822 38.6356 243.573 38.6356H241.309L249.208 18.7993H252.177L260.076 38.6356Z" fill="white"/>
<path fill-rule="evenodd" clip-rule="evenodd" d="M272.036 28.3586C272.79 28.3586 273.455 28.2665 274.031 28.0821C274.606 27.898 275.088 27.6382 275.474 27.3017C275.861 26.9656 276.151 26.565 276.344 26.1C276.537 25.6351 276.634 25.1217 276.634 24.5597C276.634 23.4179 276.259 22.5567 275.508 21.9768C274.758 21.3963 273.633 21.1063 272.132 21.1063H269.356V28.3586H272.036ZM281.288 38.6356H278.664C278.139 38.6356 277.757 38.4289 277.518 38.0143L272.615 31.1352C272.458 30.9047 272.288 30.741 272.104 30.6446C271.92 30.5482 271.644 30.4997 271.276 30.4997H269.356V38.6356H266.415V18.7995H272.132C273.411 18.7995 274.514 18.9305 275.439 19.1934C276.365 19.4557 277.129 19.8286 277.732 20.312C278.335 20.7955 278.782 21.3781 279.072 22.0593C279.361 22.7411 279.506 23.5054 279.506 24.3524C279.506 25.0432 279.4 25.6926 279.189 26.3002C278.977 26.9082 278.666 27.4537 278.257 27.9372C277.847 28.4207 277.347 28.8374 276.758 29.1874C276.169 29.5371 275.501 29.8043 274.756 29.9881C275.124 30.2096 275.442 30.518 275.709 30.914L281.288 38.6356Z" fill="white"/>
<path fill-rule="evenodd" clip-rule="evenodd" d="M300 36.2458L299.986 38.6357H287.695V18.7993H299.986V21.1892H290.651V27.4742H298.163V29.7813H290.651V36.2458H300Z" fill="white"/>
</svg>
