<svg width="13" height="16" viewBox="0 0 13 16" fill="none" xmlns="http://www.w3.org/2000/svg">
<path d="M8.7082 5.79614C8.50124 5.79614 8.3335 5.96388 8.3335 6.17085V13.2528C8.3335 13.4596 8.50124 13.6275 8.7082 13.6275C8.91517 13.6275 9.08291 13.4596 9.08291 13.2528V6.17085C9.08291 5.96388 8.91517 5.79614 8.7082 5.79614Z" fill="#FF647C"/>
<path d="M4.28682 5.79614C4.07985 5.79614 3.91211 5.96388 3.91211 6.17085V13.2528C3.91211 13.4596 4.07985 13.6275 4.28682 13.6275C4.49378 13.6275 4.66152 13.4596 4.66152 13.2528V6.17085C4.66152 5.96388 4.49378 5.79614 4.28682 5.79614Z" fill="#FF647C"/>
<path d="M1.06423 4.76262V13.9946C1.06423 14.5403 1.26431 15.0527 1.61384 15.4204C1.96176 15.7891 2.44596 15.9984 2.95269 15.9993H10.0422C10.5491 15.9984 11.0333 15.7891 11.3811 15.4204C11.7306 15.0527 11.9307 14.5403 11.9307 13.9946V4.76262C12.6255 4.5782 13.0758 3.90695 12.9828 3.19398C12.8897 2.48116 12.2824 1.94793 11.5635 1.94779H9.645V1.47941C9.64719 1.08553 9.49146 0.707306 9.21262 0.429058C8.93379 0.150956 8.55498 -0.00390332 8.1611 -0.000683189H4.83383C4.43995 -0.00390332 4.06114 0.150956 3.78231 0.429058C3.50348 0.707306 3.34774 1.08553 3.34993 1.47941V1.94779H1.43147C0.7125 1.94793 0.105213 2.48116 0.0121219 3.19398C-0.0808227 3.90695 0.36941 4.5782 1.06423 4.76262ZM10.0422 15.2499H2.95269C2.31203 15.2499 1.81364 14.6995 1.81364 13.9946V4.79556H11.1813V13.9946C11.1813 14.6995 10.6829 15.2499 10.0422 15.2499ZM4.09935 1.47941C4.09686 1.2843 4.17356 1.0965 4.31202 0.958769C4.45034 0.821036 4.63857 0.745363 4.83383 0.748729H8.1611C8.35636 0.745363 8.54459 0.821036 8.68291 0.958769C8.82137 1.09636 8.89807 1.2843 8.89558 1.47941V1.94779H4.09935V1.47941ZM1.43147 2.6972H11.5635C11.936 2.6972 12.2379 2.99916 12.2379 3.37167C12.2379 3.74418 11.936 4.04614 11.5635 4.04614H1.43147C1.05896 4.04614 0.756997 3.74418 0.756997 3.37167C0.756997 2.99916 1.05896 2.6972 1.43147 2.6972Z" fill="#FF647C"/>
<path d="M6.49751 5.79614C6.29054 5.79614 6.1228 5.96388 6.1228 6.17085V13.2528C6.1228 13.4596 6.29054 13.6275 6.49751 13.6275C6.70448 13.6275 6.87222 13.4596 6.87222 13.2528V6.17085C6.87222 5.96388 6.70448 5.79614 6.49751 5.79614Z" fill="#FF647C"/>
</svg>
