<svg width="12" height="15" viewBox="0 0 12 15" fill="none" xmlns="http://www.w3.org/2000/svg">
<path d="M8.04133 5.35303C7.85021 5.35303 7.69531 5.50792 7.69531 5.69905V12.2388C7.69531 12.4298 7.85021 12.5848 8.04133 12.5848C8.23245 12.5848 8.38735 12.4298 8.38735 12.2388V5.69905C8.38735 5.50792 8.23245 5.35303 8.04133 5.35303Z" fill="white"/>
<path d="M3.95832 5.35303C3.7672 5.35303 3.6123 5.50792 3.6123 5.69905V12.2388C3.6123 12.4298 3.7672 12.5848 3.95832 12.5848C4.14944 12.5848 4.30434 12.4298 4.30434 12.2388V5.69905C4.30434 5.50792 4.14944 5.35303 3.95832 5.35303Z" fill="white"/>
<path d="M0.982746 4.39866V12.9238C0.982746 13.4277 1.16751 13.9009 1.49028 14.2404C1.81157 14.5809 2.25869 14.7742 2.72662 14.775H9.27338C9.74145 14.7742 10.1886 14.5809 10.5097 14.2404C10.8325 13.9009 11.0173 13.4277 11.0173 12.9238V4.39866C11.6589 4.22835 12.0746 3.60849 11.9888 2.95011C11.9028 2.29187 11.3421 1.79947 10.6781 1.79934H8.90655V1.36681C8.90858 1.00309 8.76476 0.653829 8.50728 0.396884C8.24979 0.140074 7.89999 -0.00292812 7.53626 4.54639e-05H4.46374C4.10001 -0.00292812 3.75021 0.140074 3.49272 0.396884C3.23524 0.653829 3.09143 1.00309 3.09345 1.36681V1.79934H1.32187C0.657949 1.79947 0.0971576 2.29187 0.0111939 2.95011C-0.0746347 3.60849 0.341127 4.22835 0.982746 4.39866V4.39866ZM9.27338 14.083H2.72662C2.13501 14.083 1.67478 13.5747 1.67478 12.9238V4.42907H10.3252V12.9238C10.3252 13.5747 9.86499 14.083 9.27338 14.083ZM3.78549 1.36681C3.78319 1.18664 3.85402 1.01323 3.98188 0.886039C4.10961 0.758851 4.28343 0.688972 4.46374 0.69208H7.53626C7.71657 0.688972 7.89039 0.758851 8.01812 0.886039C8.14598 1.01309 8.21681 1.18664 8.21451 1.36681V1.79934H3.78549V1.36681ZM1.32187 2.49137H10.6781C11.0221 2.49137 11.301 2.77021 11.301 3.1142C11.301 3.45819 11.0221 3.73703 10.6781 3.73703H1.32187C0.97788 3.73703 0.699039 3.45819 0.699039 3.1142C0.699039 2.77021 0.97788 2.49137 1.32187 2.49137V2.49137Z" fill="white"/>
<path d="M5.99983 5.35303C5.80871 5.35303 5.65381 5.50792 5.65381 5.69905V12.2388C5.65381 12.4298 5.80871 12.5848 5.99983 12.5848C6.19095 12.5848 6.34584 12.4298 6.34584 12.2388V5.69905C6.34584 5.50792 6.19095 5.35303 5.99983 5.35303Z" fill="white"/>
</svg>
