<svg width="13" height="16" viewBox="0 0 13 16" fill="none" xmlns="http://www.w3.org/2000/svg">
<path d="M8.7082 5.79602C8.50124 5.79602 8.3335 5.96376 8.3335 6.17073V13.2527C8.3335 13.4595 8.50124 13.6274 8.7082 13.6274C8.91517 13.6274 9.08291 13.4595 9.08291 13.2527V6.17073C9.08291 5.96376 8.91517 5.79602 8.7082 5.79602Z" fill="#FF647C"/>
<path d="M4.28676 5.79602C4.07979 5.79602 3.91205 5.96376 3.91205 6.17073V13.2527C3.91205 13.4595 4.07979 13.6274 4.28676 13.6274C4.49372 13.6274 4.66146 13.4595 4.66146 13.2527V6.17073C4.66146 5.96376 4.49372 5.79602 4.28676 5.79602Z" fill="#FF647C"/>
<path d="M1.06423 4.7625V13.9945C1.06423 14.5401 1.26431 15.0526 1.61384 15.4203C1.96176 15.789 2.44596 15.9983 2.95269 15.9991H10.0422C10.5491 15.9983 11.0333 15.789 11.3811 15.4203C11.7306 15.0526 11.9307 14.5401 11.9307 13.9945V4.7625C12.6255 4.57807 13.0758 3.90682 12.9828 3.19386C12.8897 2.48104 12.2824 1.94781 11.5635 1.94767H9.645V1.47928C9.64719 1.0854 9.49146 0.707184 9.21262 0.428936C8.93379 0.150834 8.55498 -0.00402539 8.1611 -0.000805259H4.83383C4.43995 -0.00402539 4.06114 0.150834 3.78231 0.428936C3.50348 0.707184 3.34774 1.0854 3.34993 1.47928V1.94767H1.43147C0.7125 1.94781 0.105213 2.48104 0.0121219 3.19386C-0.0808227 3.90682 0.36941 4.57807 1.06423 4.7625ZM10.0422 15.2497H2.95269C2.31203 15.2497 1.81364 14.6994 1.81364 13.9945V4.79543H11.1813V13.9945C11.1813 14.6994 10.6829 15.2497 10.0422 15.2497ZM4.09935 1.47928C4.09686 1.28417 4.17356 1.09638 4.31202 0.958647C4.45034 0.820914 4.63857 0.745241 4.83383 0.748607H8.1611C8.35636 0.745241 8.54459 0.820914 8.68291 0.958647C8.82137 1.09623 8.89807 1.28417 8.89558 1.47928V1.94767H4.09935V1.47928ZM1.43147 2.69708H11.5635C11.936 2.69708 12.2379 2.99904 12.2379 3.37155C12.2379 3.74406 11.936 4.04602 11.5635 4.04602H1.43147C1.05896 4.04602 0.756997 3.74406 0.756997 3.37155C0.756997 2.99904 1.05896 2.69708 1.43147 2.69708Z" fill="#FF647C"/>
<path d="M6.49745 5.79602C6.29048 5.79602 6.12274 5.96376 6.12274 6.17073V13.2527C6.12274 13.4595 6.29048 13.6274 6.49745 13.6274C6.70442 13.6274 6.87216 13.4595 6.87216 13.2527V6.17073C6.87216 5.96376 6.70442 5.79602 6.49745 5.79602Z" fill="#FF647C"/>
</svg>
