<svg width="16" height="16" viewBox="0 0 16 16" fill="none" xmlns="http://www.w3.org/2000/svg">
<path d="M15.6734 2.44897H14.0408V0.32653C14.0408 0.146187 13.8946 0 13.7143 0H0.32653C0.146187 0 0 0.146187 0 0.32653V13.2245C0 13.4048 0.146187 13.551 0.32653 13.551H1.95918V15.6734C1.95918 15.8538 2.10537 16 2.28571 16H12.4077C12.4078 16 12.4079 16 12.4081 16C12.4931 16 12.5766 15.9668 12.639 15.9044L15.9043 12.6391C15.9668 12.5766 15.9991 12.4931 15.9992 12.4082H16V2.7755C16 2.59516 15.8538 2.44897 15.6734 2.44897ZM1.95921 2.7755V12.8979H0.653093V0.65306H13.3878V2.44897H2.28574C2.10537 2.44897 1.95921 2.59516 1.95921 2.7755ZM12.7347 14.8851V12.7347H14.8851L12.7347 14.8851ZM15.3469 12.0816H12.4081C12.2278 12.0816 12.0816 12.2278 12.0816 12.4081V15.3469H2.61224V3.10203H15.3469V12.0816Z" fill="#748AA1"/>
<path d="M13.2249 4.73486H4.08203V5.38792H13.2249V4.73486Z" fill="#748AA1"/>
<path d="M8.97998 6.69385H4.08203V7.34691H8.97998V6.69385Z" fill="#748AA1"/>
<path d="M13.2249 8.65283H4.08203V9.30589H13.2249V8.65283Z" fill="#748AA1"/>
<path d="M8.97998 10.6123H4.08203V11.2654H8.97998V10.6123Z" fill="#748AA1"/>
<path d="M5.22489 12.5713H4.08203V13.2243H5.22489V12.5713Z" fill="#748AA1"/>
<path d="M6.85721 12.5713H5.71436V13.2243H6.85721V12.5713Z" fill="#748AA1"/>
<path d="M8.48953 12.5713H7.34668V13.2243H8.48953V12.5713Z" fill="#748AA1"/>
</svg>
