<svg width="18" height="16" viewBox="0 0 18 16" fill="none" xmlns="http://www.w3.org/2000/svg">
<path d="M17.1117 6.04675C17.1117 6.021 17.1059 5.9821 17.0959 5.95969C17.0696 5.86423 17.0111 5.77704 16.9235 5.71616L14.4722 4.01211V2.18538C14.4722 1.94323 14.2758 1.74683 14.0336 1.74683H11.2134L8.81381 0.0785633C8.66384 -0.0258244 8.46473 -0.0262592 8.31428 0.0776936L5.89922 1.74683H3.09136C2.84914 1.74683 2.6528 1.94323 2.6528 2.18538V3.99061L0.18951 5.69308C0.0683319 5.77684 0.00277609 5.91072 0.000702384 6.04762C0.000568596 6.0502 0 6.05264 0 6.05531L0.0130777 15.5621C0.013245 15.6784 0.0596023 15.7899 0.141915 15.872C0.224127 15.954 0.335505 16 0.451633 16C0.451867 16 0.452034 16 0.452235 16L16.6868 15.9777C16.929 15.9774 17.1251 15.7807 17.1248 15.5385L17.1117 6.04675ZM14.4721 5.08037L15.8735 6.05428L14.4721 7.02852V5.08037ZM8.5629 0.972296L9.67701 1.74679H7.44236L8.5629 0.972296ZM3.52991 2.62394H13.595V7.63832L10.2157 9.98769L8.83786 8.91893C8.83572 8.91726 8.83388 8.91622 8.83181 8.91472C8.67782 8.79919 8.46001 8.79495 8.3002 8.91893L6.91239 9.99542L3.52991 7.65772V2.62394ZM2.6528 5.05679V7.05156L1.20971 6.05421L2.6528 5.05679ZM0.878247 6.89182L6.18523 10.5594L0.88895 14.6675L0.878247 6.89182ZM1.73506 15.1212L8.56905 9.82036L15.3785 15.1024L1.73506 15.1212ZM10.9419 10.551L16.2358 6.87068L16.2465 14.6658L10.9419 10.551Z" fill="#2CCDA0"/>
</svg>
