<svg width="20" height="24" viewBox="0 0 20 24" fill="none" xmlns="http://www.w3.org/2000/svg">
<path d="M17 1H3C1.89543 1 1 1.89543 1 3V20.8087C1 21.9133 1.89543 22.8087 3 22.8087H17C18.1046 22.8087 19 21.9133 19 20.8087V3C19 1.89543 18.1046 1 17 1Z" stroke="#2CCDA0" stroke-width="0.8"/>
<path fill-rule="evenodd" clip-rule="evenodd" d="M4.375 7.6001L6.44267 16.3601H8.1131L6.46983 7.6001H4.375Z" fill="#2CCDA0"/>
<path fill-rule="evenodd" clip-rule="evenodd" d="M9.07279 7.6001L6.92676 16.3601H8.58788L10.6687 7.6001H9.07279Z" fill="#2CCDA0"/>
<path fill-rule="evenodd" clip-rule="evenodd" d="M9.07324 7.6001L11.1409 16.3601H12.811L11.1681 7.6001H9.07324Z" fill="#2CCDA0"/>
<path fill-rule="evenodd" clip-rule="evenodd" d="M13.4625 7.6001L11.3169 16.3601H13.2863L15.3671 7.6001H13.4625Z" fill="#2CCDA0"/>
</svg>
