<svg width="18" height="19" viewBox="0 0 18 19" fill="none" xmlns="http://www.w3.org/2000/svg">
<path d="M9.43585 8.72214L12.2524 5.90558C12.477 5.68096 12.477 5.31682 12.2524 5.09223C12.0278 4.86763 11.6637 4.86761 11.4391 5.09223L9.02918 7.50211L6.61929 5.09223C6.3947 4.86763 6.03056 4.86761 5.80594 5.09223C5.58133 5.31684 5.58135 5.68098 5.80594 5.90558L8.62251 8.72214C8.8471 8.94673 9.21124 8.94675 9.43585 8.72214Z" fill="#2CCDA0" stroke="#2CCDA0" stroke-width="0.1"/>
<mask id="path-2-outside-1" maskUnits="userSpaceOnUse" x="0.685839" y="3.03156" width="16.9706" height="16.9706" fill="black">
<rect fill="white" x="0.685839" y="3.03156" width="16.9706" height="16.9706"/>
<path fill-rule="evenodd" clip-rule="evenodd" d="M8.53663 14.0336L13.5079 14.0336C13.798 14.0336 14.0331 13.7985 14.0331 13.5085L14.0331 9.52524C14.0331 9.23523 13.798 9.00011 13.5079 9.00011C13.2179 9.00011 12.9828 9.23523 12.9828 9.52524L12.9828 12.9833L7.52472 12.9833C7.51534 12.9833 7.5081 12.9836 7.50289 12.9841H5.05056L5.05056 9.52597C5.05056 9.23596 4.81547 9.00084 4.52544 9.00084C4.2354 9.00084 4.00031 9.23596 4.00031 9.52597L4.00031 13.5092C4.00031 13.7992 4.2354 14.0343 4.52544 14.0343H8.50866C8.51804 14.0343 8.52737 14.0341 8.53663 14.0336Z"/>
</mask>
<path fill-rule="evenodd" clip-rule="evenodd" d="M8.53663 14.0336L13.5079 14.0336C13.798 14.0336 14.0331 13.7985 14.0331 13.5085L14.0331 9.52524C14.0331 9.23523 13.798 9.00011 13.5079 9.00011C13.2179 9.00011 12.9828 9.23523 12.9828 9.52524L12.9828 12.9833L7.52472 12.9833C7.51534 12.9833 7.5081 12.9836 7.50289 12.9841H5.05056L5.05056 9.52597C5.05056 9.23596 4.81547 9.00084 4.52544 9.00084C4.2354 9.00084 4.00031 9.23596 4.00031 9.52597L4.00031 13.5092C4.00031 13.7992 4.2354 14.0343 4.52544 14.0343H8.50866C8.51804 14.0343 8.52737 14.0341 8.53663 14.0336Z" fill="#2CCDA0"/>
<path d="M13.5079 14.0336V13.9336L13.5079 13.9336L13.5079 14.0336ZM8.53663 14.0336V13.9334L8.53139 13.9337L8.53663 14.0336ZM14.0331 13.5085L14.1331 13.5085L14.1331 13.5085L14.0331 13.5085ZM14.0331 9.52524L13.9331 9.52524L14.0331 9.52524ZM13.5079 9.00011L13.5079 8.90011L13.5079 8.90011L13.5079 9.00011ZM12.9828 9.52524H13.0828H12.9828ZM12.9828 12.9833V13.0833H13.0828V12.9833H12.9828ZM7.50289 12.9841V13.0845L7.51218 13.0836L7.50289 12.9841ZM5.05056 12.9841H4.95056L4.95056 13.0841L5.05056 13.0841L5.05056 12.9841ZM5.05056 9.52597L5.15056 9.52597L5.05056 9.52597ZM4.52544 9.00084L4.52544 9.10084L4.52544 9.00084ZM4.00031 9.52597L3.90031 9.52597L4.00031 9.52597ZM4.00031 13.5092L4.10031 13.5092L4.00031 13.5092ZM4.52544 14.0343L4.52544 13.9343L4.52544 14.0343ZM8.50866 14.0343V14.1343V14.0343ZM13.5079 13.9336L8.53663 13.9336V14.1336L13.5079 14.1336L13.5079 13.9336ZM13.9331 13.5085C13.9331 13.7432 13.7427 13.9336 13.5079 13.9336L13.5079 14.1336C13.8532 14.1336 14.1331 13.8537 14.1331 13.5085L13.9331 13.5085ZM13.9331 9.52524L13.9331 13.5085L14.1331 13.5085L14.1331 9.52524L13.9331 9.52524ZM13.5079 9.10011C13.7427 9.10011 13.9331 9.29045 13.9331 9.52524L14.1331 9.52524C14.1331 9.18 13.8532 8.90011 13.5079 8.90011L13.5079 9.10011ZM13.0828 9.52524C13.0828 9.29045 13.2731 9.10011 13.5079 9.10011L13.5079 8.90011C13.1627 8.90011 12.8828 9.18 12.8828 9.52524H13.0828ZM13.0828 12.9833L13.0828 9.52524H12.8828L12.8828 12.9833H13.0828ZM7.52472 13.0833L12.9828 13.0833V12.8833L7.52472 12.8833L7.52472 13.0833ZM7.51218 13.0836C7.51215 13.0836 7.51242 13.0836 7.51304 13.0836C7.51365 13.0835 7.5145 13.0835 7.51561 13.0835C7.51786 13.0834 7.52086 13.0833 7.52472 13.0833L7.52472 12.8833C7.51419 12.8833 7.50338 12.8836 7.49361 12.8845L7.51218 13.0836ZM7.50289 12.8841L5.05056 12.8841L5.05056 13.0841L7.50289 13.0841L7.50289 12.8841ZM5.15056 12.9841L5.15056 9.52597H4.95056L4.95056 12.9841L5.15056 12.9841ZM5.15056 9.52597C5.15056 9.18073 4.8707 8.90084 4.52544 8.90084V9.10084C4.76024 9.10084 4.95056 9.29118 4.95056 9.52597H5.15056ZM4.52544 8.90084C4.18017 8.90084 3.90031 9.18073 3.90031 9.52597H4.10031C4.10031 9.29118 4.29063 9.10084 4.52544 9.10084V8.90084ZM3.90031 9.52597L3.90031 13.5092L4.10031 13.5092L4.10031 9.52597H3.90031ZM3.90031 13.5092C3.90031 13.8544 4.18017 14.1343 4.52544 14.1343L4.52544 13.9343C4.29063 13.9343 4.10031 13.744 4.10031 13.5092L3.90031 13.5092ZM4.52544 14.1343L8.50866 14.1343V13.9343H4.52544L4.52544 14.1343ZM8.50866 14.1343C8.51979 14.1343 8.53086 14.134 8.54187 14.1334L8.53139 13.9337C8.52387 13.9341 8.51629 13.9343 8.50866 13.9343V14.1343Z" fill="#2CCDA0" mask="url(#path-2-outside-1)"/>
<path d="M9.02949 8.89039L9.02949 8.89039C9.34713 8.89039 9.60462 8.6329 9.60462 8.31526L9.60462 1.7433L9.60462 1.7433C9.6046 1.42568 9.34711 1.1682 9.0295 1.16818L9.02949 1.16818C8.87071 1.16818 8.72682 1.23261 8.6228 1.33663C8.5188 1.44063 8.45435 1.5845 8.45435 1.74332L8.45437 8.31526L8.50437 8.31526L8.45437 8.31526C8.45439 8.63288 8.71187 8.89037 9.02949 8.89039Z" fill="#2CCDA0" stroke="#2CCDA0" stroke-width="0.1"/>
</svg>
