<svg width="18" height="18" viewBox="0 0 18 18" fill="none" xmlns="http://www.w3.org/2000/svg">
<path fill-rule="evenodd" clip-rule="evenodd" d="M13.2665 0.89049C13.4128 0.724946 13.6656 0.709328 13.8311 0.855609L16.4997 3.21358C16.5806 3.28514 16.6292 3.38642 16.6343 3.49436C16.6395 3.60231 16.6007 3.70773 16.5269 3.78664L5.87717 15.1666C5.85042 15.1952 5.8196 15.2197 5.78572 15.2394L2.13232 17.3572C1.98948 17.44 1.81045 17.4265 1.68161 17.3233C1.55276 17.2201 1.50058 17.0483 1.55023 16.8908L2.86869 12.7098C2.88552 12.6564 2.91337 12.6072 2.95043 12.5652L13.2665 0.89049ZM3.60612 13.0313L2.62336 16.1478L5.33341 14.5769L15.6615 3.54053L13.6012 1.71996L3.60612 13.0313Z" fill="white"/>
<path fill-rule="evenodd" clip-rule="evenodd" d="M14.8106 5.46164L12.1421 3.10367L12.6718 2.50418L15.3403 4.86215L14.8106 5.46164Z" fill="white"/>
<path fill-rule="evenodd" clip-rule="evenodd" d="M5.30116 14.879L3.29977 13.1105L3.8295 12.511L5.83088 14.2795L5.30116 14.879Z" fill="white"/>
</svg>
