<svg width="18" height="18" viewBox="0 0 18 18" fill="none" xmlns="http://www.w3.org/2000/svg">
<path fill-rule="evenodd" clip-rule="evenodd" d="M13.2664 0.890002C13.4127 0.724457 13.6655 0.70884 13.831 0.85512L16.4995 3.21309C16.5805 3.28465 16.6291 3.38593 16.6342 3.49387C16.6393 3.60182 16.6006 3.70725 16.5267 3.78615L5.87705 15.1661C5.85029 15.1947 5.81948 15.2192 5.7856 15.2389L2.13219 17.3567C1.98936 17.4395 1.81033 17.426 1.68148 17.3228C1.55264 17.2196 1.50045 17.0478 1.5501 16.8903L2.86857 12.7093C2.8854 12.6559 2.91324 12.6067 2.9503 12.5647L13.2664 0.890002ZM3.606 13.0308L2.62323 16.1474L5.33329 14.5764L15.6614 3.54004L13.601 1.71948L3.606 13.0308Z" fill="#293248"/>
<path fill-rule="evenodd" clip-rule="evenodd" d="M14.8103 5.46066L12.1418 3.10269L12.6715 2.5032L15.3401 4.86117L14.8103 5.46066Z" fill="#293248"/>
<path fill-rule="evenodd" clip-rule="evenodd" d="M5.30091 14.878L3.29953 13.1095L3.82926 12.51L5.83064 14.2785L5.30091 14.878Z" fill="#293248"/>
</svg>
