<svg width="15" height="15" viewBox="0 0 15 15" fill="none" xmlns="http://www.w3.org/2000/svg">
<path fill-rule="evenodd" clip-rule="evenodd" d="M11.3167 0.272301C11.4399 0.132828 11.6529 0.11967 11.7924 0.242912L14.1733 2.34679C14.2416 2.40708 14.2825 2.49241 14.2868 2.58335C14.2911 2.6743 14.2584 2.76312 14.1962 2.8296L4.69416 12.9833C4.67162 13.0074 4.64566 13.028 4.61711 13.0446L1.3574 14.9342C1.23706 15.0039 1.08622 14.9926 0.97767 14.9056C0.869116 14.8187 0.825149 14.6739 0.866981 14.5413L2.04337 10.8108C2.05755 10.7658 2.08101 10.7243 2.11223 10.689L11.3167 0.272301ZM2.66466 11.0817L1.7711 13.9153L4.23604 12.4864L13.4672 2.62225L11.5986 0.971138L2.66466 11.0817Z" fill="#748AA1"/>
<path fill-rule="evenodd" clip-rule="evenodd" d="M12.6926 4.32273L10.3116 2.21885L10.7579 1.71378L13.1389 3.81765L12.6926 4.32273Z" fill="#748AA1"/>
<path fill-rule="evenodd" clip-rule="evenodd" d="M4.20768 12.7255L2.42197 11.1476L2.86827 10.6425L4.65398 12.2204L4.20768 12.7255Z" fill="#748AA1"/>
</svg>
