<svg width="15" height="15" viewBox="0 0 15 15" fill="none" xmlns="http://www.w3.org/2000/svg">
<path d="M13.4751 0.95H9.49192C9.17427 0.95 8.9168 1.2075 8.9168 1.52512C8.9168 1.84275 9.17427 2.10025 9.49192 2.10025H12.9V5.50834C12.9 5.82597 13.1575 6.08347 13.4751 6.08347C13.7928 6.08347 14.0503 5.82597 14.0503 5.50834V1.52512C14.0503 1.2075 13.7928 0.95 13.4751 0.95Z" fill="#2CCDA0" stroke="#2CCDA0" stroke-width="0.1"/>
<path d="M5.50834 12.8997H2.10027V9.49155C2.10027 9.1739 1.84277 8.91643 1.52515 8.91643C1.2075 8.91643 0.95 9.1739 0.95 9.49155V13.4748C0.95 13.7924 1.2075 14.0499 1.52512 14.0499H5.50834C5.82597 14.0499 6.08347 13.7924 6.08347 13.4748C6.0835 13.1571 5.82596 12.8997 5.50834 12.8997Z" fill="#2CCDA0" stroke="#2CCDA0" stroke-width="0.1"/>
<path d="M13.8816 1.11846L13.8816 1.11845C13.657 0.893849 13.2928 0.893849 13.0682 1.11845L8.42117 5.76553L8.42117 5.76553C8.19659 5.99014 8.19659 6.35428 8.42117 6.57888L8.42117 6.57888C8.53345 6.69116 8.68075 6.74734 8.82786 6.74734C8.97494 6.74734 9.12224 6.69119 9.23455 6.57888L13.8816 1.93181L13.8462 1.89645L13.8816 1.93181C14.1062 1.7072 14.1062 1.34306 13.8816 1.11846Z" fill="#2CCDA0" stroke="#2CCDA0" stroke-width="0.1"/>
<path d="M6.57888 8.42119C6.3543 8.19658 5.99013 8.19659 5.76553 8.42119L6.57889 8.42119C6.57889 8.42119 6.57888 8.42119 6.57888 8.42119ZM6.57888 8.42119C6.80349 8.64579 6.80349 9.00994 6.57888 9.23452L1.93181 13.8816C1.8195 13.9939 1.67223 14.0501 1.52512 14.0501C1.37805 14.0501 1.23074 13.9939 1.11845 13.8816C1.11845 13.8816 1.11845 13.8816 1.11844 13.8816L1.15381 13.8462L6.57888 8.42119Z" fill="#2CCDA0" stroke="#2CCDA0" stroke-width="0.1"/>
</svg>
