<svg width="13" height="13" viewBox="0 0 13 13" fill="none" xmlns="http://www.w3.org/2000/svg">
<path d="M11.5557 0.8H8.18525C7.82937 0.8 7.54091 1.08849 7.54091 1.44434C7.54091 1.80018 7.82937 2.08868 8.18525 2.08868H10.9113V4.81478C10.9113 5.17063 11.1998 5.45912 11.5557 5.45912C11.9116 5.45912 12.2 5.17063 12.2 4.81478V1.44434C12.2 1.08849 11.9116 0.8 11.5557 0.8Z" fill="#2CCDA0" stroke="#2CCDA0" stroke-width="0.4"/>
<path d="M2.08846 10.9113H4.81454C5.17036 10.9113 5.4589 11.1997 5.45888 11.5556L2.08846 10.9113ZM2.08846 10.9113V8.18518C2.08846 7.82931 1.79996 7.54084 1.44412 7.54084C1.08826 7.54084 0.799756 7.8293 0.799756 8.18518V11.5556C0.799756 11.9115 1.08825 12.2 1.4441 12.2H4.81454C5.17038 12.2 5.45887 11.9115 5.45888 11.5556L2.08846 10.9113Z" fill="#2CCDA0" stroke="#2CCDA0" stroke-width="0.4"/>
<path d="M12.0111 0.988734L12.0111 0.988725C11.7594 0.737092 11.3515 0.737092 11.0998 0.988725L7.16766 4.9209L7.16766 4.92091C6.91605 5.17254 6.91605 5.5805 7.16766 5.83213L7.16766 5.83214C7.29343 5.9579 7.4587 6.02087 7.62329 6.02087C7.78786 6.02087 7.95313 5.95793 8.07892 5.83214L7.9375 5.69072L8.07892 5.83214L12.0111 1.89996L12.0111 1.89996C12.2627 1.64832 12.2627 1.24037 12.0111 0.988734Z" fill="#2CCDA0" stroke="#2CCDA0" stroke-width="0.4"/>
<path d="M0.988481 11.1001L0.988482 11.1001L4.92065 7.16792C5.17228 6.9163 5.58027 6.91628 5.83189 7.16792C5.8319 7.16793 5.8319 7.16793 5.8319 7.16793L5.69047 7.30935C5.864 7.48288 5.864 7.76421 5.69047 7.93772L0.988481 11.1001ZM0.988481 11.1001C0.736859 11.3517 0.736847 11.7596 0.988446 12.0113C1.11425 12.1371 1.27955 12.2 1.44409 12.2C1.60868 12.2 1.77393 12.1371 1.89972 12.0113L5.83188 8.07915L0.988481 11.1001Z" fill="#2CCDA0" stroke="#2CCDA0" stroke-width="0.4"/>
</svg>
