<svg width="16" height="10" viewBox="0 0 16 10" fill="none" xmlns="http://www.w3.org/2000/svg">
<path d="M15.8983 4.69483C15.7554 4.50309 12.3497 0 7.99993 0C3.6502 0 0.244313 4.50309 0.101532 4.69465C-0.0338438 4.87655 -0.0338438 5.12327 0.101532 5.30517C0.244313 5.49691 3.6502 10 7.99993 10C12.3497 10 15.7554 5.49688 15.8983 5.30532C16.0339 5.12345 16.0339 4.87655 15.8983 4.69483ZM7.99993 8.96552C4.79589 8.96552 2.02085 5.97673 1.19938 4.99965C2.01979 4.02171 4.78901 1.03448 7.99993 1.03448C11.2038 1.03448 13.9787 4.02275 14.8005 5.00035C13.9801 5.97826 11.2108 8.96552 7.99993 8.96552Z" fill="#2CCDA0"/>
<path d="M7.99981 1.89648C6.25475 1.89648 4.83496 3.28873 4.83496 4.99995C4.83496 6.71116 6.25475 8.10341 7.99981 8.10341C9.74488 8.10341 11.1647 6.71116 11.1647 4.99995C11.1647 3.28873 9.74488 1.89648 7.99981 1.89648ZM7.99981 7.0689C6.83637 7.0689 5.88993 6.14079 5.88993 4.99995C5.88993 3.8591 6.8364 2.93099 7.99981 2.93099C9.16322 2.93099 10.1097 3.8591 10.1097 4.99995C10.1097 6.14079 9.16325 7.0689 7.99981 7.0689Z" fill="#2CCDA0"/>
</svg>
