<svg width="30" height="30" viewBox="0 0 30 30" fill="none" xmlns="http://www.w3.org/2000/svg">
<path fill-rule="evenodd" clip-rule="evenodd" d="M8.86149 3.75C9.16506 3.75 9.4413 3.92536 9.57047 4.20007L10.7371 6.6812L13.3077 7.07338C13.5981 7.11768 13.8394 7.32074 13.9325 7.59934C14.0257 7.87794 13.9552 8.18526 13.7499 8.39537L11.8683 10.3209L12.3163 13.0632C12.3646 13.3593 12.2397 13.6569 11.9946 13.8298C11.7494 14.0026 11.4271 14.0204 11.1645 13.8754L8.86158 12.6044L6.55826 13.8755C6.29564 14.0204 5.97333 14.0026 5.72822 13.8298C5.4831 13.6569 5.3582 13.3592 5.40657 13.0632L5.85468 10.3209L3.97312 8.3954C3.7678 8.18528 3.69729 7.87795 3.79048 7.59934C3.88368 7.32073 4.12492 7.11768 4.41534 7.07339L6.98592 6.68139L8.15253 4.20009C8.28169 3.92538 8.55793 3.75 8.86149 3.75ZM8.86153 6.37464L8.32505 7.51568C8.15865 7.86867 7.82743 8.13819 7.4172 8.20059L6.16071 8.39219L7.08892 9.34208C7.08895 9.34211 7.08889 9.34205 7.08892 9.34208C7.37051 9.63021 7.48918 10.0351 7.42594 10.4211L7.21293 11.7246L8.28753 11.1316C8.28794 11.1314 8.28835 11.1311 8.28876 11.1309C8.6466 10.9327 9.07663 10.9335 9.43312 11.1302L10.51 11.7245L10.2973 10.4223C10.2972 10.4222 10.2973 10.4224 10.2973 10.4223C10.2337 10.0355 10.3526 9.63133 10.6329 9.34333L10.634 9.3422L11.5624 8.39209L10.3069 8.20055C10.3067 8.20052 10.307 8.20057 10.3069 8.20055" fill="white"/>
<path fill-rule="evenodd" clip-rule="evenodd" d="M20.7231 3.75C21.0266 3.75 21.3029 3.92536 21.432 4.20007L22.5986 6.6812L25.1693 7.07338C25.4597 7.11768 25.7009 7.32074 25.7941 7.59934C25.8873 7.87794 25.8168 8.18526 25.6115 8.39537L23.7299 10.3209L24.1778 13.0632C24.2262 13.3593 24.1013 13.6569 23.8561 13.8298C23.611 14.0026 23.2887 14.0204 23.0261 13.8754L20.7232 12.6044L18.4198 13.8755C18.1572 14.0204 17.8349 14.0026 17.5898 13.8298C17.3447 13.6569 17.2198 13.3592 17.2681 13.0632L17.7162 10.3209L15.8347 8.3954C15.6294 8.18528 15.5589 7.87795 15.6521 7.59934C15.7453 7.32073 15.9865 7.11768 16.2769 7.07339L18.8475 6.68139L20.0141 4.20009C20.1433 3.92538 20.4195 3.75 20.7231 3.75ZM20.7231 6.37464L20.1866 7.51568C20.0202 7.86867 19.689 8.13819 19.2788 8.20059L18.0223 8.39219L18.9505 9.34208C18.9505 9.34211 18.9505 9.34205 18.9505 9.34208C19.2321 9.63021 19.3508 10.0351 19.2875 10.4211L19.0745 11.7246L20.1491 11.1316C20.1495 11.1314 20.1499 11.1311 20.1503 11.1309C20.5082 10.9327 20.9382 10.9335 21.2947 11.1302L22.3715 11.7245L22.1588 10.4223C22.1588 10.4222 22.1589 10.4224 22.1588 10.4223C22.0953 10.0355 22.2141 9.63133 22.4944 9.34333L22.4955 9.3422L23.424 8.39209L22.1685 8.20055C22.1683 8.20052 22.1686 8.20057 22.1685 8.20055" fill="white"/>
<path fill-rule="evenodd" clip-rule="evenodd" d="M8.9716 15.501C9.27516 15.501 9.55141 15.6763 9.68057 15.9511L10.8472 18.4322L13.4178 18.8244C13.7082 18.8687 13.9495 19.0717 14.0426 19.3503C14.1358 19.6289 14.0653 19.9362 13.86 20.1463L11.9784 22.0719L12.4264 24.8142C12.4747 25.1102 12.3498 25.4079 12.1047 25.5808C11.8595 25.7536 11.5372 25.7713 11.2746 25.6264L8.97169 24.3554L6.66837 25.6264C6.40575 25.7714 6.08344 25.7536 5.83832 25.5807C5.5932 25.4079 5.46831 25.1102 5.51668 24.8142L5.96478 22.0719L4.08323 20.1464C3.87791 19.9363 3.8074 19.6289 3.90059 19.3503C3.99379 19.0717 4.23502 18.8687 4.52545 18.8244L7.09602 18.4324L8.26264 15.9511C8.3918 15.6764 8.66804 15.501 8.9716 15.501ZM8.97163 18.1256L8.43516 19.2667C8.26875 19.6196 7.93754 19.8892 7.52731 19.9516L6.27082 20.1432L7.19903 21.0931C7.19906 21.0931 7.199 21.093 7.19903 21.0931C7.48061 21.3812 7.59929 21.7861 7.53604 22.172L7.32304 23.4756L8.39764 22.8826C8.39805 22.8823 8.39846 22.8821 8.39887 22.8819C8.75671 22.6836 9.18674 22.6845 9.54323 22.8812L10.6201 23.4755L10.4074 22.1733C10.4073 22.1732 10.4074 22.1734 10.4074 22.1733C10.3438 21.7865 10.4627 21.3823 10.743 21.0943L10.7441 21.0932L11.6725 20.1431L10.417 19.9515C10.4168 19.9515 10.4171 19.9515 10.417 19.9515" fill="white"/>
<path fill-rule="evenodd" clip-rule="evenodd" d="M20.8332 15.501C21.1367 15.501 21.413 15.6763 21.5421 15.9511L22.7088 18.4322L25.2794 18.8244C25.5698 18.8687 25.811 19.0717 25.9042 19.3503C25.9974 19.6289 25.9269 19.9362 25.7216 20.1463L23.84 22.0719L24.2879 24.8142C24.3363 25.1102 24.2114 25.4079 23.9662 25.5808C23.7211 25.7536 23.3988 25.7713 23.1362 25.6264L20.8333 24.3554L18.5299 25.6264C18.2673 25.7714 17.945 25.7536 17.6999 25.5807C17.4548 25.4079 17.3299 25.1102 17.3783 24.8142L17.8264 22.0719L15.9448 20.1464C15.7395 19.9363 15.669 19.6289 15.7622 19.3503C15.8554 19.0717 16.0966 18.8687 16.387 18.8244L18.9576 18.4324L20.1242 15.9511C20.2534 15.6764 20.5296 15.501 20.8332 15.501ZM20.8332 18.1256L20.2967 19.2667C20.1303 19.6196 19.7991 19.8892 19.3889 19.9516L18.1324 20.1432L19.0606 21.0931C19.0606 21.0931 19.0606 21.093 19.0606 21.0931C19.3422 21.3812 19.4609 21.7861 19.3976 22.172L19.1846 23.4756L20.2592 22.8826C20.2596 22.8823 20.26 22.8821 20.2604 22.8819C20.6183 22.6836 21.0483 22.6845 21.4048 22.8812L22.4817 23.4755L22.2689 22.1733C22.2689 22.1732 22.269 22.1734 22.2689 22.1733C22.2054 21.7865 22.3242 21.3823 22.6045 21.0943L22.6056 21.0932L23.5341 20.1431L22.2786 19.9515C22.2784 19.9515 22.2787 19.9515 22.2786 19.9515" fill="white"/>
</svg>
