<svg width="30" height="30" viewBox="0 0 30 30" fill="none" xmlns="http://www.w3.org/2000/svg">
<path fill-rule="evenodd" clip-rule="evenodd" d="M10.5 4.21875C10.5 3.80454 10.8358 3.46875 11.25 3.46875H17.8125C18.0238 3.46875 18.2253 3.55789 18.3675 3.71425L23.055 8.8705C23.1805 9.00855 23.25 9.18843 23.25 9.375V21.5625C23.25 21.9767 22.9142 22.3125 22.5 22.3125H11.25C10.8358 22.3125 10.5 21.9767 10.5 21.5625V4.21875ZM12 4.96875V20.8125H21.75V10.125H17.8125C17.3983 10.125 17.0625 9.78921 17.0625 9.375V4.96875H12ZM18.5625 6.15871L20.8046 8.625H18.5625V6.15871Z" fill="white"/>
<path fill-rule="evenodd" clip-rule="evenodd" d="M6.75 7.96875C6.75 7.55454 7.08579 7.21875 7.5 7.21875H11.25C11.6642 7.21875 12 7.55454 12 7.96875C12 8.38296 11.6642 8.71875 11.25 8.71875H8.25V24.5625H18.4688V21.5625C18.4688 21.1483 18.8045 20.8125 19.2188 20.8125C19.633 20.8125 19.9688 21.1483 19.9688 21.5625V25.3125C19.9688 25.7267 19.633 26.0625 19.2188 26.0625H7.5C7.08579 26.0625 6.75 25.7267 6.75 25.3125V7.96875Z" fill="white"/>
</svg>
