<svg width="21" height="28" viewBox="0 0 21 28" fill="none" xmlns="http://www.w3.org/2000/svg">
<path fill-rule="evenodd" clip-rule="evenodd" d="M6.8379 20.6528V2.29455H12.5361V6.89445C12.5361 7.52838 13.0467 8.04184 13.6757 8.04184H18.2343V20.6528H6.8379ZM14.2459 25.2425H2.27968V6.88423H4.55896V21.8003C4.55896 22.4343 5.06952 22.9477 5.6986 22.9477H14.2459V25.2425ZM14.8151 3.91767L16.6322 5.74718H14.8151V3.91767ZM20.1796 6.07315L14.4814 0.336186C14.2677 0.12105 13.9777 0 13.6757 0H5.6982C5.06912 0 4.55856 0.514032 4.55856 1.14739V4.58957H1.13964C0.510559 4.58957 0 5.1036 0 5.73696V26.39C0 27.024 0.510559 27.5374 1.13964 27.5374H15.3851C16.0142 27.5374 16.5248 27.024 16.5248 26.39V22.9478H19.3739C20.003 22.9478 20.5135 22.4344 20.5135 21.8005V6.88435C20.5135 6.58029 20.3933 6.28828 20.1796 6.07315Z" fill="#293248"/>
</svg>
