<svg width="18" height="17" viewBox="0 0 18 17" fill="none" xmlns="http://www.w3.org/2000/svg">
<path d="M17.9479 0.320555C17.8579 0.124838 17.6656 0 17.4545 0H0.545573C0.334412 0 0.142236 0.124838 0.0521126 0.320555C-0.0379381 0.516272 -0.00971544 0.747614 0.124633 0.914562L6.62465 8.99246V16.441C6.62465 16.6344 6.7222 16.814 6.88251 16.916C6.97038 16.9718 7.07011 17 7.17019 17C7.2529 17 7.33589 16.9807 7.41242 16.9419L11.0645 15.0872C11.25 14.993 11.3674 14.7993 11.3677 14.5871L11.3749 8.99268L17.8752 0.914487C18.0097 0.747614 18.038 0.516197 17.9479 0.320555ZM10.4087 8.43609C10.3284 8.53596 10.2843 8.6614 10.2841 8.79093L10.2772 14.2393L7.71581 15.5401V8.79167C7.71581 8.66192 7.6718 8.53618 7.59121 8.43609L1.70241 1.11788H16.2975L10.4087 8.43609Z" fill="#293248"/>
</svg>
