<svg width="18" height="18" viewBox="0 0 18 18" fill="none" xmlns="http://www.w3.org/2000/svg">
<path d="M9.00319 9.62414e-08C5.40206 -0.000524794 2.14744 2.14602 0.730048 5.45646L0.617871 5.49366L0.661362 5.62413C-1.20485 10.2269 1.01353 15.471 5.61629 17.3373C6.69131 17.7731 7.84048 17.9969 9.00053 17.9963C13.97 17.997 17.9993 13.969 18 8.99948C18.0008 4.02996 13.9727 0.000712448 9.00319 9.62414e-08ZM16.0612 13.5348L15.5992 13.0731V11.9975C15.5997 11.9511 15.5894 11.9052 15.5692 11.8634L14.3994 9.52722V8.39825C14.3994 8.298 14.3494 8.20434 14.2659 8.1487L13.3661 7.54883C13.2956 7.50174 13.2084 7.4867 13.1262 7.50744L12.0242 7.78278L10.1733 6.98854L9.91864 5.20452L10.6244 4.49906H12.1394L12.6493 5.2654C12.6953 5.33431 12.7679 5.38114 12.8496 5.39468L14.6493 5.69461C14.6975 5.70271 14.7469 5.69878 14.7932 5.68322L16.4507 5.13073C17.8409 7.79849 17.6922 11.0071 16.0612 13.5348ZM14.8241 2.95558L14.3364 3.28072L12.9768 3.00867L12.0947 2.71503C12.0407 2.6967 11.9826 2.69438 11.9273 2.70844L10.8122 2.98708L10.3233 2.82421L10.6856 2.09956H11.7C11.7465 2.0996 11.7924 2.08884 11.834 2.06807L12.8718 1.54918C13.5865 1.92222 14.244 2.39583 14.8241 2.95558ZM5.71531 1.26964L6.43516 1.74954C6.47055 1.77308 6.51052 1.78883 6.55244 1.79573L8.00593 2.03808L7.86406 2.46249L7.10672 2.71533C7.0389 2.7379 6.98135 2.78395 6.94446 2.84521L6.08303 4.28071L4.69942 5.11094L2.65985 5.40217C2.51201 5.42306 2.40209 5.54952 2.4019 5.69881V6.59863C2.4019 6.67818 2.43354 6.75444 2.48978 6.81068L3.00178 7.32267V7.83797L1.75403 7.00594L1.30143 5.64812C2.16255 3.68053 3.74086 2.11486 5.71531 1.26964ZM4.86139 11.1037L3.50567 10.8322L3.00178 9.82715V9.1223L4.11934 8.00473L4.53296 8.83226C4.58376 8.93394 4.68772 8.99816 4.8014 8.99813H6.7312L7.54373 10.3523C7.59794 10.4426 7.6955 10.4978 7.80078 10.4978H8.6346L8.42465 11.5497L7.28908 12.6853C7.23273 12.7415 7.20101 12.8177 7.2009 12.8973V13.6472L6.12113 14.457C6.04562 14.5136 6.00115 14.6025 6.00115 14.6969V15.7803L5.62803 15.6567L5.10134 14.3394V11.3976C5.10138 11.2551 5.00105 11.1322 4.86139 11.1037ZM3.95978 15.7145C1.13178 13.5929 -0.0641872 9.92703 0.968498 6.54584L1.21775 7.29328C1.23874 7.35653 1.28021 7.41101 1.33562 7.44805L2.83081 8.44474L2.48978 8.78607C2.43354 8.84231 2.4019 8.91857 2.4019 8.99813V9.89794C2.40186 9.94447 2.41262 9.99036 2.43339 10.032L3.03327 11.2318C3.07481 11.3146 3.15231 11.3736 3.24323 11.3916L4.50296 11.6433V14.397C4.50293 14.4351 4.51016 14.4729 4.52426 14.5083L5.12413 16.008C5.15698 16.0899 5.22424 16.1532 5.308 16.181L6.20781 16.481C6.23788 16.4912 6.26937 16.4964 6.30109 16.4966C6.46673 16.4966 6.60103 16.3623 6.60103 16.1966V14.8469L7.6808 14.0371C7.75631 13.9804 7.80078 13.8915 7.80078 13.7971V13.0215L8.91265 11.9096C8.95445 11.8677 8.98294 11.8144 8.99453 11.7564L9.29447 10.2567C9.32694 10.0942 9.22158 9.93622 9.05913 9.90375C9.03982 9.89989 9.02021 9.89794 9.00053 9.89794H7.97054L7.15801 8.54372C7.1038 8.45348 7.00624 8.39829 6.90096 8.39825H4.98676L4.47147 7.36437C4.42832 7.27806 4.34628 7.21777 4.25102 7.2024C4.15579 7.18594 4.05857 7.21736 3.99097 7.28638L3.60165 7.6742V7.1985C3.60165 7.11894 3.57001 7.04268 3.51377 6.98644L3.00178 6.47445V5.95886L4.84399 5.69581C4.88355 5.69008 4.9216 5.67651 4.95587 5.65592L6.45556 4.75611C6.49762 4.73084 6.53287 4.6956 6.55814 4.65353L7.40096 3.24892L8.1955 2.98378C8.28521 2.95435 8.35562 2.88397 8.38506 2.79422L8.68499 1.89441C8.73696 1.73713 8.65159 1.56747 8.49431 1.51551C8.4798 1.51071 8.46491 1.50704 8.44984 1.50449L6.7138 1.21505L6.40877 1.01169C8.29624 0.397342 10.3405 0.473377 12.1772 1.22614L11.6292 1.49969H10.5002C10.386 1.49905 10.2813 1.56339 10.2303 1.66555L9.6304 2.8653C9.5565 3.01355 9.61675 3.19366 9.76499 3.26756C9.77763 3.27386 9.79068 3.27925 9.80406 3.28372L10.7039 3.58365C10.7579 3.60199 10.816 3.60431 10.8712 3.59025L11.9864 3.31161L12.8034 3.58365C12.8151 3.58785 12.8272 3.59108 12.8394 3.59325L14.3391 3.89319C14.4171 3.90909 14.4982 3.89311 14.5644 3.8488L15.247 3.39349C15.583 3.7677 15.8849 4.17112 16.1492 4.59894L14.6735 5.09084L13.0758 4.82449L12.5479 4.03266C12.4926 3.94969 12.3996 3.89968 12.2998 3.89919H10.5002C10.4207 3.89919 10.3444 3.93083 10.2882 3.98707L9.38835 4.88688C9.32154 4.95366 9.29008 5.04802 9.30346 5.14153L9.6034 7.24109C9.61851 7.34491 9.68675 7.43328 9.78336 7.47414L11.8829 8.37395C11.9431 8.40001 12.0102 8.40537 12.0737 8.38925L13.1448 8.12141L13.7995 8.55872V9.598C13.799 9.64441 13.8093 9.69031 13.8295 9.73207L14.9993 12.0683V13.1973C14.9993 13.2768 15.0309 13.3531 15.0872 13.4093L15.7146 14.0371C12.9318 17.7463 7.66899 18.4973 3.95978 15.7145Z" fill="#293248"/>
</svg>
