<svg width="23" height="27" viewBox="0 0 23 27" fill="none" xmlns="http://www.w3.org/2000/svg">
<path d="M22.1 13.9957C22.1 12.2731 20.8656 10.8371 19.2364 10.5162V7.92045C19.2364 4.0404 15.7562 0.9 11.5 0.9C7.24376 0.9 3.76364 4.0404 3.76364 7.92045V10.5162C2.13442 10.8371 0.9 12.2731 0.9 13.9961V23.323C0.9 25.2802 2.49258 26.8727 4.4502 26.8727H18.5498C20.5074 26.8727 22.1 25.2802 22.1 23.3225V13.9957ZM4.91818 7.92045C4.91818 4.6962 7.85972 2.05455 11.5 2.05455C15.1403 2.05455 18.0818 4.6962 18.0818 7.92045V10.4455H4.91818V7.92045ZM20.9455 23.3225C20.9455 24.6433 19.8705 25.7182 18.5498 25.7182H4.4502C3.12946 25.7182 2.05455 24.6433 2.05455 23.3225V13.9957C2.05455 12.6749 3.12946 11.6 4.4502 11.6H18.5498C19.8705 11.6 20.9455 12.6749 20.9455 13.9957V23.3225Z" fill="#2CCDA0" stroke="#2CCDA0" stroke-width="0.2"/>
<path d="M11.498 14.2623C10.3899 14.2623 9.48887 15.1633 9.48887 16.2714V19.135C9.48887 20.2431 10.3899 21.1441 11.498 21.1441C12.6061 21.1441 13.507 20.2431 13.507 19.135V16.2714C13.507 15.1633 12.6061 14.2623 11.498 14.2623ZM12.3525 19.135C12.3525 19.6062 11.9692 19.9896 11.498 19.9896C11.0268 19.9896 10.6434 19.6062 10.6434 19.135V16.2714C10.6434 15.8002 11.0268 15.4169 11.498 15.4169C11.9692 15.4169 12.3525 15.8002 12.3525 16.2714V19.135Z" fill="#2CCDA0" stroke="#2CCDA0" stroke-width="0.2"/>
</svg>
