<svg width="30" height="30" viewBox="0 0 30 30" fill="none" xmlns="http://www.w3.org/2000/svg">
<path fill-rule="evenodd" clip-rule="evenodd" d="M14.4306 4.90595C14.7565 4.61468 15.2434 4.61469 15.5694 4.90594L25.018 13.3518C25.3768 13.6725 25.4128 14.2291 25.0982 14.5951C24.9274 14.7939 24.6881 14.8954 24.4483 14.8954C24.2464 14.8954 24.0431 14.8233 23.8793 14.677L23.4281 14.2737V24.4315C23.4281 24.918 23.0414 25.3125 22.5643 25.3125H7.43561C6.95851 25.3125 6.5718 24.918 6.5718 24.4315V14.2736L6.1207 14.6768C5.76195 14.9976 5.2161 14.9608 4.90169 14.5951C4.5873 14.2291 4.62317 13.6725 4.98191 13.3518L14.4306 4.90595ZM15 6.7399L8.29948 12.7294V23.5506H11.8372V17.1776C11.8372 16.6911 12.224 16.2967 12.701 16.2967H17.2992C17.7761 16.2967 18.163 16.6911 18.163 17.1776V23.5506H21.7006V12.7293L15 6.7399ZM13.2266 17.7138H16.7733V23.5506H13.2266V17.7138Z" fill="white"/>
</svg>
