<svg width="14" height="14" viewBox="0 0 14 14" fill="none" xmlns="http://www.w3.org/2000/svg">
<path fill-rule="evenodd" clip-rule="evenodd" d="M4.03002 5.51283C4.39295 5.51283 4.68934 5.21623 4.68934 4.85379C4.68934 4.49058 4.39274 4.19419 4.03002 4.19419C3.6672 4.19419 3.3707 4.49069 3.3707 4.85351C3.3707 5.21633 3.6672 5.51283 4.03002 5.51283ZM5.58934 4.85379C5.58934 5.71339 4.8899 6.41283 4.03002 6.41283C3.17014 6.41283 2.4707 5.71339 2.4707 4.85351C2.4707 3.99363 3.17014 3.29419 4.03002 3.29419C4.8899 3.29419 5.58934 3.99363 5.58934 4.85379Z" fill="#2CCDA0"/>
<path fill-rule="evenodd" clip-rule="evenodd" d="M12 0.9H2C1.39249 0.9 0.9 1.39249 0.9 2V10.8166L2.797 8.91955C3.75379 7.96277 5.30504 7.96277 6.26183 8.91955L6.58823 9.24596L8.14992 7.68426C9.10671 6.72748 10.658 6.72748 11.6147 7.68426L13.1 9.16952V2C13.1 1.39249 12.6075 0.9 12 0.9ZM13.1 10.4423L10.9784 8.32066C10.373 7.71535 9.39163 7.71535 8.78632 8.32066L7.22463 9.88235L8.96526 11.623C9.141 11.7987 9.141 12.0836 8.96526 12.2594C8.78952 12.4351 8.5046 12.4351 8.32886 12.2594L5.62543 9.55595C5.02012 8.95064 4.03871 8.95064 3.4334 9.55595L0.917124 12.0722C0.912579 12.0768 0.907961 12.0812 0.903274 12.0855C0.946909 12.6531 1.42126 13.1 2 13.1H12C12.6075 13.1 13.1 12.6075 13.1 12V10.4423ZM2 0C0.895431 0 0 0.89543 0 2V12C0 13.1046 0.89543 14 2 14H12C13.1046 14 14 13.1046 14 12V2C14 0.895431 13.1046 0 12 0H2Z" fill="#2CCDA0"/>
</svg>
