<svg width="20" height="24" viewBox="0 0 20 24" fill="none" xmlns="http://www.w3.org/2000/svg">
<path d="M17 1H3C1.89543 1 1 1.89543 1 3V20.8087C1 21.9133 1.89543 22.8087 3 22.8087H17C18.1046 22.8087 19 21.9133 19 20.8087V3C19 1.89543 18.1046 1 17 1Z" stroke="#2CCDA0" stroke-width="0.8"/>
<path fill-rule="evenodd" clip-rule="evenodd" d="M15.0625 15.8498V8.1498C15.0625 7.5448 14.5562 7.0498 13.9375 7.0498H6.0625C5.44375 7.0498 4.9375 7.5448 4.9375 8.1498V15.8498C4.9375 16.4548 5.44375 16.9498 6.0625 16.9498H13.9375C14.5562 16.9498 15.0625 16.4548 15.0625 15.8498ZM8.03125 12.8248L9.4375 14.4803L11.4062 11.9998L13.9375 15.2998H6.0625L8.03125 12.8248Z" fill="#2CCDA0"/>
</svg>
