<svg width="18" height="13" viewBox="0 0 18 13" fill="none" xmlns="http://www.w3.org/2000/svg">
<path d="M7.20711 1.70711C7.59763 1.31658 7.59763 0.683417 7.20711 0.292893C6.81658 -0.0976311 6.18342 -0.0976311 5.79289 0.292893L7.20711 1.70711ZM1 6.5L0.292893 5.79289C-0.0976311 6.18342 -0.0976311 6.81658 0.292893 7.20711L1 6.5ZM5.79289 12.7071C6.18342 13.0976 6.81658 13.0976 7.20711 12.7071C7.59763 12.3166 7.59763 11.6834 7.20711 11.2929L5.79289 12.7071ZM16.2692 7.5C16.8215 7.5 17.2692 7.05228 17.2692 6.5C17.2692 5.94772 16.8215 5.5 16.2692 5.5V7.5ZM5.79289 0.292893L0.292893 5.79289L1.70711 7.20711L7.20711 1.70711L5.79289 0.292893ZM0.292893 7.20711L5.79289 12.7071L7.20711 11.2929L1.70711 5.79289L0.292893 7.20711ZM1 7.5H16.2692V5.5H1V7.5Z" fill="#2CCDA0"/>
</svg>
