<svg width="16" height="16" viewBox="0 0 16 16" fill="none" xmlns="http://www.w3.org/2000/svg">
<path d="M8 0C3.58878 0 0 3.58878 0 8C0 12.4112 3.58878 16 8 16C12.4112 16 16 12.4112 16 8C16 3.58878 12.4112 0 8 0ZM8 15.0847C4.09346 15.0847 0.915297 11.9065 0.915297 8C0.915297 4.09351 4.09346 0.915297 8 0.915297C11.9065 0.915297 15.0847 4.09351 15.0847 8C15.0847 11.9065 11.9065 15.0847 8 15.0847Z" fill="#2CCDA0"/>
<path d="M5.7118 6.15887C5.45902 6.15887 5.25415 6.36375 5.25415 6.61652V10.4005C5.25415 10.6532 5.45902 10.8581 5.7118 10.8581C5.96457 10.8581 6.16945 10.6532 6.16945 10.4005V6.61652C6.16945 6.36375 5.96457 6.15887 5.7118 6.15887Z" fill="#2CCDA0"/>
<path d="M5.7118 4.02304C5.59128 4.02304 5.47331 4.07186 5.38839 4.15728C5.30297 4.2422 5.25415 4.36018 5.25415 4.48069C5.25415 4.6012 5.30297 4.71912 5.38839 4.8046C5.47331 4.88952 5.59128 4.93834 5.7118 4.93834C5.83231 4.93834 5.95028 4.88952 6.0352 4.8046C6.12063 4.71912 6.16945 4.6012 6.16945 4.48069C6.16945 4.36018 6.12063 4.2422 6.0352 4.15728C5.95028 4.07186 5.83231 4.02304 5.7118 4.02304Z" fill="#2CCDA0"/>
<path d="M9.66532 6.51482C9.18631 6.51482 8.74295 6.6692 8.38136 6.93022V6.61652C8.38136 6.36375 8.17649 6.15887 7.92371 6.15887C7.67094 6.15887 7.46606 6.36375 7.46606 6.61652V10.4005C7.46606 10.6532 7.67094 10.8581 7.92371 10.8581C8.17649 10.8581 8.38136 10.6532 8.38136 10.4005V8.71408C8.38136 8.0061 8.95734 7.43012 9.66532 7.43012C10.3733 7.43012 10.9493 8.0061 10.9493 8.71408V10.5022C10.9493 10.7549 11.1542 10.9598 11.4069 10.9598C11.6597 10.9598 11.8646 10.7549 11.8646 10.5022V8.71408C11.8646 7.50141 10.878 6.51482 9.66532 6.51482Z" fill="#2CCDA0"/>
</svg>
