<svg width="32" height="41" viewBox="0 0 32 41" fill="none" xmlns="http://www.w3.org/2000/svg">
<path d="M27.3636 15.3813V11.1586C27.3636 5.14381 22.2656 0.25 16 0.25C9.73438 0.25 4.63636 5.14381 4.63636 11.1586V15.3813C2.22088 15.8222 0.375 18.052 0.375 20.7355V35.4373C0.375 38.4352 2.67827 40.875 5.50923 40.875H26.4908C29.3217 40.875 31.625 38.4352 31.625 35.4365V20.7348C31.625 18.052 29.7791 15.8222 27.3636 15.3813ZM6.05682 11.1586C6.05682 5.97286 10.517 1.75463 16 1.75463C21.483 1.75463 25.9432 5.97286 25.9432 11.1586V15.2963H6.05682V11.1586ZM30.2045 35.4365C30.2045 37.6054 28.5384 39.3704 26.4908 39.3704H5.50923C3.46165 39.3704 1.79545 37.6054 1.79545 35.4365V20.7348C1.79545 18.5659 3.46165 16.8009 5.50923 16.8009H26.4908C28.5384 16.8009 30.2045 18.5659 30.2045 20.7348V35.4365Z" fill="#748AA1"/>
<path d="M16 22.125C14.2766 22.125 12.875 23.5785 12.875 25.3657V30.2268C12.875 32.0141 14.2766 33.4676 16 33.4676C17.7234 33.4676 19.125 32.0141 19.125 30.2268V25.3657C19.125 23.5785 17.7234 22.125 16 22.125ZM17.5625 30.2268C17.5625 31.1205 16.8617 31.8472 16 31.8472C15.1383 31.8472 14.4375 31.1205 14.4375 30.2268V25.3657C14.4375 24.4721 15.1383 23.7454 16 23.7454C16.8617 23.7454 17.5625 24.4721 17.5625 25.3657V30.2268Z" fill="#748AA1"/>
</svg>
