<svg width="16" height="18" viewBox="0 0 16 18" fill="none" xmlns="http://www.w3.org/2000/svg">
<path d="M13.4445 6.70433V4.83333C13.4445 2.16833 11.0518 0 8.11117 0C5.1705 0 2.77783 2.16833 2.77783 4.83333V6.70433C1.64417 6.89967 0.777832 7.88767 0.777832 9.07667V15.5907C0.777832 16.919 1.85883 18 3.1875 18H13.0348C14.3635 18 15.4445 16.919 15.4445 15.5903V9.07633C15.4445 7.88767 14.5782 6.89967 13.4445 6.70433ZM3.4445 4.83333C3.4445 2.53567 5.53783 0.666667 8.11117 0.666667C10.6845 0.666667 12.7778 2.53567 12.7778 4.83333V6.66667H3.4445V4.83333ZM14.7778 15.5903C14.7778 16.5513 13.9958 17.3333 13.0348 17.3333H3.1875C2.2265 17.3333 1.4445 16.5513 1.4445 15.5903V9.07633C1.4445 8.11533 2.2265 7.33333 3.1875 7.33333H13.0348C13.9958 7.33333 14.7778 8.11533 14.7778 9.07633V15.5903Z" fill="#293248"/>
<path d="M8.11117 9.33276C7.37583 9.33276 6.77783 9.93076 6.77783 10.6661V12.6661C6.77783 13.4014 7.37583 13.9994 8.11117 13.9994C8.8465 13.9994 9.4445 13.4014 9.4445 12.6661V10.6661C9.4445 9.93076 8.8465 9.33276 8.11117 9.33276ZM8.77783 12.6661C8.77783 13.0338 8.47883 13.3328 8.11117 13.3328C7.7435 13.3328 7.4445 13.0338 7.4445 12.6661V10.6661C7.4445 10.2984 7.7435 9.99943 8.11117 9.99943C8.47883 9.99943 8.77783 10.2984 8.77783 10.6661V12.6661Z" fill="#293248"/>
</svg>
