<svg width="12" height="15" viewBox="0 0 12 15" fill="none" xmlns="http://www.w3.org/2000/svg">
<path d="M11.05 7.55513C11.05 6.68916 10.4642 5.96386 9.68636 5.80087V4.49074C9.68636 2.5365 8.03067 0.95 6 0.95C3.96933 0.95 2.31364 2.5365 2.31364 4.49074V5.80087C1.5358 5.96386 0.95 6.68917 0.95 7.55537V12.2599C0.95 13.2441 1.70676 14.05 2.64295 14.05H9.35705C10.2932 14.05 11.05 13.2441 11.05 12.2597V7.55513ZM2.86818 4.49074C2.86818 2.86152 4.27041 1.53148 6 1.53148C7.7296 1.53148 9.13182 2.86152 9.13182 4.49074V5.76481H2.86818V4.49074ZM10.4955 12.2597C10.4955 12.9289 9.98199 13.4685 9.35705 13.4685H2.64295C2.01801 13.4685 1.50455 12.9289 1.50455 12.2597V7.55513C1.50455 6.88594 2.01801 6.3463 2.64295 6.3463H9.35705C9.98199 6.3463 10.4955 6.88594 10.4955 7.55513V12.2597Z" fill="#748AA1" stroke="#748AA1" stroke-width="0.1"/>
<path d="M6 7.95C5.41919 7.95 4.95 8.43923 4.95 9.03704V10.5926C4.95 11.1904 5.41919 11.6796 6 11.6796C6.58081 11.6796 7.05 11.1904 7.05 10.5926V9.03704C7.05 8.43923 6.58081 7.95 6 7.95ZM6.45 10.5926C6.45 10.8527 6.24644 11.0611 6 11.0611C5.75356 11.0611 5.55 10.8527 5.55 10.5926V9.03704C5.55 8.77696 5.75356 8.56852 6 8.56852C6.24644 8.56852 6.45 8.77696 6.45 9.03704V10.5926Z" fill="#748AA1" stroke="#748AA1" stroke-width="0.1"/>
</svg>
