<svg width="12" height="14" viewBox="0 0 12 14" fill="none" xmlns="http://www.w3.org/2000/svg">
<path d="M10.1888 5.21448V3.75926C10.1888 1.68648 8.3278 0 6.04062 0C3.75343 0 1.89247 1.68648 1.89247 3.75926V5.21448C1.01073 5.36641 0.336914 6.13485 0.336914 7.05963V12.1261C0.336914 13.1592 1.17769 14 2.2111 14H9.87014C10.9035 14 11.7443 13.1592 11.7443 12.1258V7.05937C11.7443 6.13485 11.0705 5.36641 10.1888 5.21448ZM2.41099 3.75926C2.41099 1.97219 4.03914 0.518519 6.04062 0.518519C8.0421 0.518519 9.67025 1.97219 9.67025 3.75926V5.18518H2.41099V3.75926ZM11.2258 12.1258C11.2258 12.8733 10.6176 13.4815 9.87014 13.4815H2.2111C1.46365 13.4815 0.855433 12.8733 0.855433 12.1258V7.05937C0.855433 6.31193 1.46365 5.7037 2.2111 5.7037H9.87014C10.6176 5.7037 11.2258 6.31193 11.2258 7.05937V12.1258Z" fill="#2CCDA0"/>
<path d="M6.04045 7.25781C5.46853 7.25781 5.00342 7.72292 5.00342 8.29485V9.8504C5.00342 10.4223 5.46853 10.8874 6.04045 10.8874C6.61238 10.8874 7.07749 10.4223 7.07749 9.8504V8.29485C7.07749 7.72292 6.61238 7.25781 6.04045 7.25781ZM6.55897 9.8504C6.55897 10.1364 6.32642 10.3689 6.04045 10.3689C5.75449 10.3689 5.52194 10.1364 5.52194 9.8504V8.29485C5.52194 8.00889 5.75449 7.77633 6.04045 7.77633C6.32642 7.77633 6.55897 8.00889 6.55897 8.29485V9.8504Z" fill="#2CCDA0"/>
</svg>
