<svg width="20" height="16" viewBox="0 0 20 16" fill="none" xmlns="http://www.w3.org/2000/svg">
<path fill-rule="evenodd" clip-rule="evenodd" d="M0.599976 2.00001C0.599976 1.22681 1.22678 0.600006 1.99998 0.600006H18C18.7732 0.600006 19.4 1.22681 19.4 2.00001V14C19.4 14.7732 18.7732 15.4 18 15.4H1.99998C1.22678 15.4 0.599976 14.7732 0.599976 14V2.00001ZM1.99998 1.40001C1.98877 1.40001 1.97763 1.40031 1.96658 1.40092L9.57574 9.01009C9.81006 9.2444 10.19 9.2444 10.4243 9.01009L18.0334 1.40092C18.0224 1.40031 18.0112 1.40001 18 1.40001H1.99998ZM1.39998 2.00001C1.39998 1.9888 1.40028 1.97766 1.40089 1.96661L7.31231 7.87803L1.40054 14.0263C1.40017 14.0176 1.39998 14.0088 1.39998 14V2.00001ZM1.95996 14.5987C1.97318 14.5996 1.98653 14.6 1.99998 14.6H18C18.0135 14.6 18.027 14.5996 18.0403 14.5987L12.122 8.4437L10.99 9.57577C10.4432 10.1225 9.55679 10.1225 9.01006 9.57577L7.8781 8.44382L1.95996 14.5987ZM12.6878 7.8779L18.5994 14.026C18.5998 14.0174 18.6 14.0087 18.6 14V2.00001C18.6 1.98882 18.5997 1.9777 18.5991 1.96666L12.6878 7.8779Z" fill="#2CCDA0"/>
</svg>
