<svg width="20" height="21" viewBox="0 0 20 21" fill="none" xmlns="http://www.w3.org/2000/svg">
<g clip-path="url(#clip0)">
<path fill-rule="evenodd" clip-rule="evenodd" d="M1.30005 14.3299C1.30005 13.9433 1.61345 13.6299 2.00005 13.6299H5.5994C5.986 13.6299 6.2994 13.9433 6.2994 14.3299V19.7299C6.2994 20.1165 5.986 20.4299 5.5994 20.4299H2.00005C1.61345 20.4299 1.30005 20.1165 1.30005 19.7299V14.3299ZM2.70005 15.0299V19.0299H4.8994V15.0299H2.70005Z" fill="#293248"/>
<path fill-rule="evenodd" clip-rule="evenodd" d="M7.59888 1.73027C7.59888 1.34367 7.91228 1.03027 8.29888 1.03027H11.8982C12.2848 1.03027 12.5982 1.34367 12.5982 1.73027V19.7303C12.5982 20.1169 12.2848 20.4303 11.8982 20.4303H8.29888C7.91228 20.4303 7.59888 20.1169 7.59888 19.7303V1.73027ZM8.99888 2.43027V19.0303H11.1982V2.43027H8.99888Z" fill="#293248"/>
<path fill-rule="evenodd" clip-rule="evenodd" d="M13.8978 8.03008C13.8978 7.64348 14.2112 7.33008 14.5978 7.33008H18.1972C18.5838 7.33008 18.8972 7.64348 18.8972 8.03008V19.7301C18.8972 20.1167 18.5838 20.4301 18.1972 20.4301H14.5978C14.2112 20.4301 13.8978 20.1167 13.8978 19.7301V8.03008ZM15.2978 8.73008V19.0301H17.4972V8.73008H15.2978Z" fill="#293248"/>
</g>
<defs>
<clipPath id="clip0">
<rect width="20" height="20" fill="white" transform="translate(0 0.730469)"/>
</clipPath>
</defs>
</svg>
