<svg width="20" height="24" viewBox="0 0 20 24" fill="none" xmlns="http://www.w3.org/2000/svg">
<path fill-rule="evenodd" clip-rule="evenodd" d="M17.2 19.3318C18.1933 19.3318 19 18.4294 19 17.3326C19 16.1331 17.8005 16.0983 17.2 14.0459C17.2 14.0459 16.6764 10.3411 16.5978 8.22634C16.4571 4.22985 13.6442 1 10 1C6.35582 1 3.54291 4.23718 3.40055 8.22818C3.32527 10.3429 2.8 14.0313 2.8 14.0313C2.19782 16.1111 1 16.1276 1 17.4427C1 18.5303 1.80673 19.3318 2.8 19.3318H17.2ZM6.72727 19.3318C6.72727 21.3566 8.19345 23 10 23C11.8065 23 13.2727 21.3566 13.2727 19.3318H6.72727Z" stroke="white" stroke-width="2" stroke-linecap="round" stroke-linejoin="round"/>
</svg>
