<svg width="30" height="30" viewBox="0 0 30 30" fill="none" xmlns="http://www.w3.org/2000/svg">
<path d="M22.8711 9.00254C22.5725 8.70393 22.1037 8.6599 21.7546 8.89777C20.4395 9.79416 13.8432 14.3016 13.1343 15.0105C12.1063 16.0386 12.1063 17.7113 13.1343 18.7394C13.6483 19.2534 14.3236 19.5104 14.9988 19.5104C15.6739 19.5104 16.3491 19.2534 16.8632 18.7394C17.5721 18.0305 22.0795 11.4342 22.9759 10.1191C23.2137 9.77004 23.1697 9.30123 22.8711 9.00254ZM15.6202 17.4964C15.2775 17.8391 14.7199 17.8391 14.3773 17.4964C14.0346 17.1538 14.0346 16.5963 14.3771 16.2537C14.6526 15.9815 16.5254 14.6458 18.8296 13.0441C17.228 15.3483 15.8923 17.2211 15.6202 17.4964Z" fill="white"/>
<path d="M7.80308 20.9628L6.71808 21.4921C5.92417 20.0752 5.50779 18.4938 5.50779 16.8749C5.50779 15.6888 5.72651 14.5527 6.12566 13.5051L7.3689 14.1014C7.49151 14.1602 7.62093 14.188 7.74841 14.188C8.07593 14.188 8.39036 14.0041 8.54148 13.6891C8.75136 13.2514 8.56679 12.7264 8.1291 12.5165L6.90164 11.9277C8.42727 9.43954 11.0669 7.70482 14.121 7.42314V8.74504C14.121 9.23045 14.5145 9.62394 14.9999 9.62394C15.4853 9.62394 15.8788 9.23045 15.8788 8.74504V7.42248C16.9259 7.51779 17.9391 7.78445 18.901 8.21862C19.3433 8.41835 19.8639 8.22152 20.0636 7.77922C20.2633 7.33678 20.0666 6.81626 19.6242 6.61653C18.1667 5.95863 16.6109 5.625 14.9999 5.625C11.9949 5.625 9.16985 6.79516 7.04498 8.91998C4.92021 11.0448 3.75 13.8699 3.75 16.8749C3.75 19.0954 4.40908 21.255 5.65602 23.1201C5.82398 23.3712 6.10166 23.5106 6.38722 23.5106C6.51703 23.5106 6.64851 23.4818 6.77204 23.4216L8.57378 22.5427C9.01007 22.3298 9.19121 21.8037 8.97838 21.3674C8.76556 20.9312 8.23936 20.7501 7.80308 20.9628Z" fill="white"/>
<path d="M25.2584 12.2509C25.0587 11.8085 24.5382 11.6117 24.0957 11.8115C23.6533 12.0112 23.4565 12.5317 23.6563 12.9741C24.2109 14.2028 24.4921 15.5153 24.4921 16.8752C24.4921 18.4965 24.0744 20.0805 23.2782 21.499L22.1454 20.9595C21.7072 20.7509 21.1827 20.9369 20.974 21.3752C20.7653 21.8134 20.9514 22.3379 21.3897 22.5466L23.2354 23.4255C23.3568 23.4833 23.4855 23.5109 23.6128 23.5109C23.8984 23.5109 24.1761 23.3714 24.3439 23.1204C25.5909 21.2553 26.2499 19.0957 26.2499 16.8752C26.2499 15.2642 25.9163 13.7084 25.2584 12.2509Z" fill="white"/>
</svg>
