<svg width="17" height="22" viewBox="0 0 17 22" fill="none" xmlns="http://www.w3.org/2000/svg">
<path fill-rule="evenodd" clip-rule="evenodd" d="M8.73591 9.53931C8.73607 9.5396 8.73624 9.53989 8.73641 9.54018C8.79424 9.64133 8.85427 9.74166 8.91631 9.84099C9.27495 10.4152 9.7009 10.9562 10.1592 11.4322C10.2021 11.4767 10.2452 11.5207 10.2887 11.5641C10.2898 11.5652 10.2909 11.5663 10.292 11.5674C10.3474 11.6227 10.4032 11.677 10.4594 11.7303C10.5321 11.7055 10.6067 11.6809 10.6827 11.6565C10.6833 11.6563 10.6839 11.6561 10.6845 11.6559C10.8 11.6188 10.9189 11.5823 11.0401 11.5469C11.8207 11.3185 12.6924 11.1347 13.3333 11.1347C14.0421 11.1347 14.625 11.7238 14.625 12.44C14.625 13.1562 14.0421 13.7453 13.3333 13.7453C12.5505 13.7453 11.6365 13.4698 10.8716 13.0233C10.7391 12.9459 10.6111 12.8635 10.4891 12.7764C10.4844 12.7731 10.4798 12.7698 10.4752 12.7665C10.4017 12.7137 10.3304 12.6592 10.2616 12.6032C10.1735 12.6243 10.0852 12.6465 9.99669 12.6697C9.95935 12.6795 9.92198 12.6895 9.88457 12.6996C9.85868 12.7066 9.83277 12.7137 9.80684 12.7209C9.08318 12.9212 8.34822 13.1829 7.62513 13.4601C7.47355 13.5183 7.3225 13.577 7.17218 13.6361C7.14577 13.6465 7.11939 13.6568 7.09303 13.6672C6.98223 13.7109 6.87185 13.7546 6.76198 13.7983C6.72569 13.8674 6.68907 13.937 6.65218 14.0069C6.63774 14.0342 6.62326 14.0616 6.60874 14.089C6.60779 14.0908 6.60685 14.0926 6.6059 14.0944C6.50988 14.2756 6.41222 14.458 6.31391 14.6378C5.9528 15.2981 5.58292 15.9232 5.2531 16.3271C5.24745 16.334 5.24182 16.3408 5.2362 16.3476C5.2284 16.3548 5.22032 16.3616 5.21198 16.368C5.20448 16.3758 5.1969 16.3834 5.18923 16.3909C4.95014 16.625 4.62655 16.7474 4.29167 16.7474C3.58289 16.7474 3 16.1583 3 15.4421C3 15.1085 3.12177 14.796 3.33246 14.5582C3.34511 14.5439 3.35807 14.5299 3.37135 14.5162C3.38017 14.5048 3.3896 14.4939 3.39961 14.4836C3.40912 14.4758 3.41873 14.4681 3.42843 14.4604C3.88728 14.0973 4.55328 13.8157 5.32432 13.5149C5.44196 13.469 5.56204 13.4227 5.6842 13.3756C5.75473 13.3483 5.82596 13.3209 5.89781 13.293C5.9434 13.2754 5.98924 13.2576 6.03532 13.2396C6.12467 13.2049 6.21489 13.1695 6.30586 13.1334C6.3418 13.0626 6.37727 12.9909 6.41226 12.9185C6.42364 12.895 6.43497 12.8714 6.44626 12.8477C6.44703 12.8461 6.4478 12.8444 6.44858 12.8428C6.51341 12.7065 6.57665 12.5678 6.63839 12.427C6.97567 11.6578 7.26838 10.8283 7.53465 10.0139C7.57254 9.89801 7.6099 9.78242 7.64677 9.66736C7.64939 9.65919 7.652 9.65102 7.65462 9.64285C7.68708 9.54144 7.71916 9.44043 7.75091 9.34C7.70256 9.24256 7.65444 9.14454 7.60694 9.04616C7.60541 9.04301 7.60389 9.03986 7.60237 9.0367C7.51836 8.86255 7.4363 8.68732 7.3583 8.5123C7.01191 7.73494 6.74583 6.96168 6.74583 6.30526C6.74583 5.58903 7.32872 5 8.0375 5C8.74628 5 9.32917 5.58903 9.32917 6.30526C9.32917 6.91475 9.11213 7.65428 8.86086 8.42783C8.8226 8.54562 8.78355 8.66419 8.74434 8.78322C8.72397 8.84507 8.70356 8.90704 8.6832 8.96909C8.6783 8.98404 8.6734 8.99899 8.6685 9.01394C8.64094 9.09808 8.61352 9.18233 8.58646 9.26658C8.63444 9.35807 8.6843 9.44902 8.73591 9.53931ZM8.54547 6.4604C8.55117 6.40424 8.55417 6.35237 8.55417 6.30526C8.55417 6.01228 8.32744 5.78316 8.0375 5.78316C7.74756 5.78316 7.52083 6.01228 7.52083 6.30526C7.52083 6.35842 7.52527 6.41685 7.53368 6.47991C7.58157 6.839 7.75853 7.3487 7.98161 7.89549C7.98731 7.90946 7.99304 7.92346 7.9988 7.93747C8.03362 8.02224 8.0695 8.10783 8.10612 8.19382C8.11192 8.17512 8.11769 8.15646 8.12345 8.13783C8.14617 8.0643 8.16855 7.99132 8.19045 7.91913C8.36546 7.34218 8.50942 6.81557 8.54547 6.4604ZM7.85674 11.4418C7.85145 11.4566 7.84614 11.4714 7.84082 11.4863C7.72774 11.8014 7.60854 12.1153 7.48018 12.4256C7.47696 12.4334 7.47373 12.4412 7.4705 12.4489C7.43035 12.5456 7.3893 12.6419 7.34727 12.7378C7.44521 12.7001 7.54334 12.6626 7.64165 12.6255C7.65382 12.6209 7.66599 12.6163 7.67817 12.6117C7.96468 12.5039 8.25283 12.399 8.5431 12.2997C8.56721 12.2914 8.59133 12.2832 8.61546 12.2751C8.72264 12.2388 8.83011 12.2034 8.93789 12.1688C9.07711 12.1242 9.21685 12.0812 9.35717 12.04C9.43779 12.0164 9.5186 11.9933 9.59961 11.9709C9.5472 11.9165 9.49526 11.8613 9.44381 11.8055C9.43862 11.7998 9.43344 11.7942 9.42826 11.7886C9.27321 11.6195 9.12268 11.444 8.97747 11.2629C8.94463 11.2219 8.91207 11.1807 8.87979 11.1392C8.72374 10.9384 8.57426 10.7311 8.43241 10.5181C8.42999 10.5145 8.42757 10.5109 8.42515 10.5072C8.3687 10.4222 8.31346 10.3363 8.25951 10.2496C8.22936 10.3423 8.19903 10.4351 8.16844 10.5281C8.14597 10.5963 8.12337 10.6646 8.10059 10.7329C8.02182 10.9692 7.94096 11.2058 7.85674 11.4418ZM4.01208 15.0076C4.01111 15.0082 4.01014 15.0089 4.00917 15.0095C3.99584 15.0184 3.98294 15.0272 3.97048 15.036C3.95824 15.0446 3.94642 15.0532 3.93505 15.0617C3.92723 15.0675 3.91963 15.0733 3.91224 15.0791C3.90745 15.0844 3.90275 15.0899 3.89812 15.0956C3.8262 15.1838 3.775 15.3126 3.775 15.4421C3.775 15.7351 4.00173 15.9642 4.29167 15.9642C4.43598 15.9642 4.54575 15.9193 4.62995 15.8452C4.63571 15.8401 4.64135 15.8349 4.64688 15.8296C4.64819 15.828 4.64952 15.8264 4.65084 15.8248C4.66699 15.805 4.68358 15.7839 4.70057 15.7618C4.70132 15.7608 4.70207 15.7598 4.70283 15.7588C4.70891 15.7509 4.71504 15.7428 4.72122 15.7345C4.9287 15.4579 5.19345 15.0188 5.4683 14.5328C5.46851 14.5324 5.46871 14.5321 5.46892 14.5317C5.52026 14.4409 5.57196 14.3485 5.6237 14.2551C5.61005 14.2607 5.59643 14.2662 5.58284 14.2717C5.49109 14.3089 5.40079 14.3458 5.31241 14.3823C4.76627 14.6081 4.29386 14.8206 4.01208 15.0076ZM13.0389 12.9426C13.1421 12.9554 13.2408 12.9621 13.3333 12.9621C13.6233 12.9621 13.85 12.733 13.85 12.44C13.85 12.147 13.6233 11.9179 13.3333 11.9179C13.2497 11.9179 13.1557 11.9236 13.0534 11.9342C12.6359 11.9775 12.0815 12.102 11.537 12.2494C11.4627 12.2695 11.3886 12.2901 11.3151 12.3109C11.2976 12.3158 11.2801 12.3208 11.2626 12.3258C11.3083 12.3514 11.3548 12.3765 11.402 12.4011C11.4364 12.419 11.4711 12.4366 11.5061 12.4539C12.0077 12.7017 12.5701 12.8846 13.0389 12.9426Z" fill="#2CCDA0"/>
<path fill-rule="evenodd" clip-rule="evenodd" d="M15 0.8H2C1.33726 0.8 0.8 1.33726 0.8 2V20C0.8 20.6627 1.33726 21.2 2 21.2H15C15.6627 21.2 16.2 20.6627 16.2 20V2C16.2 1.33726 15.6627 0.8 15 0.8ZM2 0C0.895431 0 0 0.89543 0 2V20C0 21.1046 0.89543 22 2 22H15C16.1046 22 17 21.1046 17 20V2C17 0.895431 16.1046 0 15 0H2Z" fill="#2CCDA0"/>
</svg>
