<?xml version="1.0" encoding="utf-8"?>
<!-- Generator: Adobe Illustrator 22.1.0, SVG Export Plug-In . SVG Version: 6.00 Build 0)  -->
<svg version="1.1" id="Layer_1" xmlns="http://www.w3.org/2000/svg" xmlns:xlink="http://www.w3.org/1999/xlink" x="0px" y="0px"
	 viewBox="0 0 18 18" style="enable-background:new 0 0 18 18;" xml:space="preserve">
<style type="text/css">
	.st0{fill:#FFFFFF;}
</style>
<path class="st0" d="M17,7.4L17,7.4L17,7.4L17,7.4L17,7.4c0.1-0.2,0-0.3-0.1-0.3v0c-2.6-1-4.8-0.2-5.6,0.1L6.9,3.4
	C7,2,6.3,1.1,6.2,1v0l-0.1,0l0,0l0,0L6.2,1C6.1,1,6,0.9,5.9,0.9l0,0.1h0l0-0.1l0,0c-0.1,0-0.2,0-0.3,0.1l0,0L1,5.6l0,0l0,0l0,0l0,0
	C0.9,5.7,0.9,5.8,0.9,5.9h0c0,0,0,0,0,0s0,0,0,0h0C0.9,6,1,6.1,1.1,6.2c0.8,0.7,1.9,0.7,2.3,0.6l3.8,4.4c-0.3,0.7-1,3.1-0.1,5.6l0,0
	c0,0.1,0.2,0.2,0.3,0.2v0c0,0,0.1,0,0.1,0c0.1,0,0.2,0,0.3-0.1l4.3-4.3l4,4c0.1,0.1,0.2,0.1,0.3,0.1c0.1,0,0.2,0,0.3-0.1
	c0.2-0.2,0.2-0.4,0-0.6l-4-4L17,7.8l0,0l-0.1-0.1v0L17,7.8C17.1,7.7,17.1,7.5,17,7.4L17,7.4z M6.2,3.8L6.2,3.8L6.2,3.8L6.2,3.8z
	 M11.3,7.9L11.3,7.9L11.3,7.9L11.3,7.9C11.4,8,11.4,8,11.3,7.9C11.4,8,11.5,8,11.5,8c0.1,0,0.2-0.1,0.3-0.1c0.2-0.1,0.6-0.2,1-0.3
	c0.8-0.2,1.9-0.2,3.1,0.1l-8.3,8.3c-0.3-1.1-0.2-2.2-0.1-3.1c0.1-0.4,0.2-0.8,0.3-1.1c0-0.1,0.1-0.2,0.1-0.3c0,0,0-0.1,0-0.1
	c0,0,0,0,0,0c0,0,0,0,0,0l-0.1,0l0,0l0.1,0l0,0c0.1-0.1,0-0.3-0.1-0.4L3.9,6.2l0,0l0,0l0,0l0,0C3.8,6.1,3.7,6,3.6,6c0,0,0,0-0.1,0v0
	c0,0-0.2,0-0.6,0C2.7,6,2.3,6,2,5.8L5.8,2C6,2.3,6.2,2.9,6,3.5h0c0,0.1,0,0.3,0.1,0.4l0,0L10.9,8l0-0.1l0,0l0,0l0,0
	C11.1,8.1,11.2,8.1,11.3,7.9L11.3,7.9L11.3,7.9z M3.5,6.1L3.5,6.1L3.5,6.1L3.5,6.1z M7.6,16.1L7.6,16.1L7.6,16.1L7.6,16.1z
	 M11.3,7.3L11.3,7.3L11.3,7.3L11.3,7.3L11.3,7.3z M6.8,3.5L6.8,3.5L6.8,3.5L6.8,3.5L6.8,3.5z M7.3,11.3L7.3,11.3L7.3,11.3L7.3,11.3z
	 M16.8,7.2L16.8,7.2L16.8,7.2L16.8,7.2z M1.1,5.7L1.1,5.7L1.1,5.7L1.1,5.7z M1,5.9L1,5.9L1,5.9L1,5.9z M7.4,17L7.4,17L7.4,17L7.4,17
	z"/>
</svg>
