<svg width="20" height="24" viewBox="0 0 20 24" fill="none" xmlns="http://www.w3.org/2000/svg">
<path d="M17 1H3C1.89543 1 1 1.89543 1 3V20.8087C1 21.9133 1.89543 22.8087 3 22.8087H17C18.1046 22.8087 19 21.9133 19 20.8087V3C19 1.89543 18.1046 1 17 1Z" stroke="#2CCDA0" stroke-width="0.8"/>
<path fill-rule="evenodd" clip-rule="evenodd" d="M7.1875 7.86857V9.44238V9.46857V16.4001H8.81156V13.6068H9.6789V12.0068H8.81156V9.46742L9.6792 9.46681V9.46719C10.4414 9.46719 11.0618 10.0368 11.0618 10.7371C11.0618 11.4373 10.4414 12.0069 9.6792 12.0069V13.6069C11.3371 13.6069 12.6859 12.3195 12.6859 10.7371C12.6859 9.20278 11.4179 7.94578 9.82959 7.87073L9.82958 7.8667L7.1875 7.86857Z" fill="#2CCDA0"/>
</svg>
