<svg width="20" height="21" viewBox="0 0 20 21" fill="none" xmlns="http://www.w3.org/2000/svg">
<g clip-path="url(#clip0)">
<path fill-rule="evenodd" clip-rule="evenodd" d="M8.16094 0.685547C8.54754 0.685547 8.86094 0.998743 8.86094 1.38509V2.86764C8.86094 3.25399 8.54754 3.56719 8.16094 3.56719C7.77434 3.56719 7.46094 3.25399 7.46094 2.86764V1.38509C7.46094 0.998743 7.77434 0.685547 8.16094 0.685547Z" fill="#293248"/>
<path fill-rule="evenodd" clip-rule="evenodd" d="M15.0425 0.685547C15.4291 0.685547 15.7425 0.998743 15.7425 1.38509V2.86764C15.7425 3.25399 15.4291 3.56719 15.0425 3.56719C14.6559 3.56719 14.3425 3.25399 14.3425 2.86764V1.38509C14.3425 0.998743 14.6559 0.685547 15.0425 0.685547Z" fill="#293248"/>
<path fill-rule="evenodd" clip-rule="evenodd" d="M11.6017 0.685547C11.9883 0.685547 12.3017 0.998743 12.3017 1.38509V2.86764C12.3017 3.25399 11.9883 3.56719 11.6017 3.56719C11.2151 3.56719 10.9017 3.25399 10.9017 2.86764V1.38509C10.9017 0.998743 11.2151 0.685547 11.6017 0.685547Z" fill="#293248"/>
<path fill-rule="evenodd" clip-rule="evenodd" d="M4.88062 2.17806C4.88062 1.79171 5.19402 1.47852 5.58062 1.47852H17.6231C18.0097 1.47852 18.3231 1.79171 18.3231 2.17806V16.7941C18.3231 17.1805 18.0097 17.4937 17.6231 17.4937H5.58062C5.19402 17.4937 4.88062 17.1805 4.88062 16.7941V2.17806ZM6.28062 2.8776V16.0946H16.9231V2.8776H6.28062Z" fill="#293248"/>
<path fill-rule="evenodd" clip-rule="evenodd" d="M2.30005 3.89779C2.30005 3.51144 2.61345 3.19824 3.00005 3.19824H5.82634V4.59733H3.70005V18.6741H15.2027V16.8577H16.6027V19.3727C16.6027 19.7591 16.2893 20.0732 15.9027 20.0732H3.00005C2.61345 20.0732 2.30005 19.76 2.30005 19.3736V3.89779Z" fill="#293248"/>
<path fill-rule="evenodd" clip-rule="evenodd" d="M7.46094 13.3548C7.46094 12.9685 7.77434 12.6553 8.16094 12.6553H15.0423C15.4289 12.6553 15.7423 12.9685 15.7423 13.3548C15.7423 13.7412 15.4289 14.0544 15.0423 14.0544H8.16094C7.77434 14.0544 7.46094 13.7412 7.46094 13.3548Z" fill="#293248"/>
<path fill-rule="evenodd" clip-rule="evenodd" d="M7.46094 8.19661C7.46094 7.81027 7.77434 7.49707 8.16094 7.49707H15.0423C15.4289 7.49707 15.7423 7.81027 15.7423 8.19661C15.7423 8.58296 15.4289 8.89616 15.0423 8.89616H8.16094C7.77434 8.89616 7.46094 8.58296 7.46094 8.19661Z" fill="#293248"/>
<path fill-rule="evenodd" clip-rule="evenodd" d="M7.46094 10.7757C7.46094 10.3894 7.77434 10.0762 8.16094 10.0762H15.0423C15.4289 10.0762 15.7423 10.3894 15.7423 10.7757C15.7423 11.1621 15.4289 11.4753 15.0423 11.4753H8.16094C7.77434 11.4753 7.46094 11.1621 7.46094 10.7757Z" fill="#293248"/>
</g>
<defs>
<clipPath id="clip0">
<rect width="20" height="19.987" fill="white" transform="translate(0 0.385742)"/>
</clipPath>
</defs>
</svg>
