<svg width="21" height="21" viewBox="0 0 21 21" fill="none" xmlns="http://www.w3.org/2000/svg">
<g clip-path="url(#clip0)">
<path d="M18.8355 2.38224C18.8065 2.34177 18.7744 2.30455 18.7401 2.26966C18.7385 2.26798 18.7372 2.26616 18.7355 2.2646C18.7341 2.26318 18.7324 2.26188 18.731 2.26045C18.5386 2.07005 18.2711 1.96655 17.9613 1.96655C17.7856 1.96655 17.5969 1.99976 17.4007 2.06525L2.95376 6.88075C2.18944 7.13562 2.05014 7.58049 2.03523 7.8229C2.02018 8.06543 2.10358 8.52405 2.83042 8.87113L6.45813 10.6037L4.83467 14.6126C4.83065 14.6223 4.82702 14.6321 4.82378 14.642C4.64336 15.1832 4.716 15.6699 5.02326 15.977C5.21949 16.1732 5.48888 16.2738 5.79899 16.2738C5.97435 16.2738 6.16267 16.2416 6.35813 16.1765C6.36811 16.1731 6.37784 16.1696 6.38757 16.1656L10.3966 14.5421L12.129 18.1697C12.4601 18.863 12.8966 18.9666 13.1273 18.9666C13.3334 18.9666 13.8426 18.8768 14.1194 18.0464L18.935 3.59948C19.0936 3.12361 19.0583 2.69132 18.8355 2.38224ZM3.11239 7.88969C3.15181 7.86972 3.20344 7.84767 3.2688 7.82588L17.0706 3.22516L9.28403 11.0118C8.99999 10.7729 8.70297 10.5719 8.42126 10.4374L3.2596 7.97218C3.19747 7.94248 3.14909 7.91433 3.11239 7.88969ZM6.02947 15.236C5.85762 15.2911 5.76021 15.2817 5.72908 15.2712C5.71858 15.2399 5.70911 15.1426 5.76423 14.9708L7.35863 11.0337L7.99196 11.3363C8.5948 11.6241 9.37599 12.4055 9.66392 13.0082L9.96651 13.6416L6.02947 15.236ZM13.1744 17.7315C13.1526 17.797 13.1305 17.8484 13.1106 17.8879C13.0858 17.8512 13.0575 17.8028 13.0278 17.7404L10.5627 12.5789C10.4282 12.2972 10.2272 12.0003 9.9883 11.7161L17.7751 3.92943L13.1744 17.7315Z" fill="#293248"/>
</g>
<defs>
<clipPath id="clip0">
<rect width="17" height="17" fill="white" transform="translate(2.00049 1.99976)"/>
</clipPath>
</defs>
</svg>
