<svg width="18" height="13" viewBox="0 0 18 13" fill="none" xmlns="http://www.w3.org/2000/svg">
<path d="M10.0624 1.70711C9.6719 1.31658 9.6719 0.683417 10.0624 0.292893C10.4529 -0.0976311 11.0861 -0.0976311 11.4766 0.292893L10.0624 1.70711ZM16.2695 6.5L16.9766 5.79289C17.3672 6.18342 17.3672 6.81658 16.9766 7.20711L16.2695 6.5ZM11.4766 12.7071C11.0861 13.0976 10.4529 13.0976 10.0624 12.7071C9.6719 12.3166 9.6719 11.6834 10.0624 11.2929L11.4766 12.7071ZM1.0003 7.5C0.448016 7.5 0.000301361 7.05228 0.000301361 6.5C0.000301361 5.94772 0.448016 5.5 1.0003 5.5V7.5ZM11.4766 0.292893L16.9766 5.79289L15.5624 7.20711L10.0624 1.70711L11.4766 0.292893ZM16.9766 7.20711L11.4766 12.7071L10.0624 11.2929L15.5624 5.79289L16.9766 7.20711ZM16.2695 7.5H1.0003V5.5H16.2695V7.5Z" fill="#2CCDA0"/>
</svg>
