<svg width="16" height="16" viewBox="0 0 16 16" fill="none" xmlns="http://www.w3.org/2000/svg">
<path fill-rule="evenodd" clip-rule="evenodd" d="M12.4444 6.72221C12.4444 8.08366 11.969 9.33406 11.175 10.3164L13.0108 12.1495L14.821 13.9568C15.0597 14.1955 15.0597 14.5824 14.821 14.821C14.5824 15.0596 14.1954 15.0596 13.9568 14.821L10.3164 11.175C9.33403 11.969 8.08364 12.4444 6.72221 12.4444C3.56192 12.4444 1 9.8825 1 6.72221C1 3.56192 3.56192 1 6.72221 1C9.8825 1 12.4444 3.56192 12.4444 6.72221ZM2.22213 6.72221C2.22213 4.23688 4.23688 2.22213 6.72221 2.22213C9.20754 2.22213 11.2223 4.23688 11.2223 6.72221C11.2223 9.20753 9.20754 11.2223 6.72221 11.2223C4.23688 11.2223 2.22213 9.20753 2.22213 6.72221Z" fill="white"/>
<path d="M11.175 10.3164L11.0972 10.2536L11.0407 10.3236L11.1044 10.3872L11.175 10.3164ZM13.0108 12.1495L12.9401 12.2202L12.9401 12.2202L13.0108 12.1495ZM14.821 13.9568L14.8917 13.8861L14.8917 13.8861L14.821 13.9568ZM13.9568 14.821L13.886 14.8916L13.8861 14.8917L13.9568 14.821ZM10.3164 11.175L10.3871 11.1044L10.3235 11.0407L10.2535 11.0973L10.3164 11.175ZM11.2528 10.3793C12.0606 9.37977 12.5444 8.10735 12.5444 6.72221H12.3444C12.3444 8.05996 11.8773 9.28834 11.0972 10.2536L11.2528 10.3793ZM13.0815 12.0787L11.2457 10.2457L11.1044 10.3872L12.9401 12.2202L13.0815 12.0787ZM14.8917 13.8861L13.0815 12.0787L12.9401 12.2202L14.7504 14.0276L14.8917 13.8861ZM14.8917 14.8917C15.1694 14.614 15.1694 14.1638 14.8917 13.8861L14.7503 14.0275C14.9499 14.2271 14.9499 14.5507 14.7503 14.7503L14.8917 14.8917ZM13.8861 14.8917C14.1638 15.1694 14.614 15.1694 14.8917 14.8917L14.7503 14.7503C14.5507 14.9499 14.2271 14.9499 14.0275 14.7503L13.8861 14.8917ZM10.2456 11.2457L13.886 14.8916L14.0276 14.7503L10.3871 11.1044L10.2456 11.2457ZM6.72221 12.5444C8.10734 12.5444 9.37974 12.0606 10.3792 11.2528L10.2535 11.0973C9.28832 11.8773 8.05994 12.3444 6.72221 12.3444V12.5444ZM0.9 6.72221C0.9 9.93772 3.50669 12.5444 6.72221 12.5444V12.3444C3.61715 12.3444 1.1 9.82727 1.1 6.72221H0.9ZM6.72221 0.9C3.50669 0.9 0.9 3.50669 0.9 6.72221H1.1C1.1 3.61715 3.61715 1.1 6.72221 1.1V0.9ZM12.5444 6.72221C12.5444 3.50669 9.93773 0.9 6.72221 0.9V1.1C9.82727 1.1 12.3444 3.61715 12.3444 6.72221H12.5444ZM6.72221 2.12213C4.18165 2.12213 2.12213 4.18165 2.12213 6.72221H2.32213C2.32213 4.29211 4.29211 2.32213 6.72221 2.32213V2.12213ZM11.3223 6.72221C11.3223 4.18165 9.26277 2.12213 6.72221 2.12213V2.32213C9.15231 2.32213 11.1223 4.29211 11.1223 6.72221H11.3223ZM6.72221 11.3223C9.26277 11.3223 11.3223 9.26276 11.3223 6.72221H11.1223C11.1223 9.15231 9.15231 11.1223 6.72221 11.1223V11.3223ZM2.12213 6.72221C2.12213 9.26276 4.18165 11.3223 6.72221 11.3223V11.1223C4.29211 11.1223 2.32213 9.15231 2.32213 6.72221H2.12213Z" fill="white"/>
</svg>
