<svg width="30" height="30" viewBox="0 0 30 30" fill="none" xmlns="http://www.w3.org/2000/svg">
<path d="M24.2569 12.835L22.8092 12.5894C22.6584 12.1025 22.4646 11.6329 22.2276 11.1848L23.0807 9.99132C23.4426 9.48291 23.3866 8.78923 22.9428 8.34976L21.6589 7.06582C21.4176 6.82454 21.0987 6.69097 20.7584 6.69097C20.4912 6.69097 20.237 6.77284 20.0216 6.92794L18.8238 7.78103C18.3585 7.53545 17.8716 7.33295 17.3675 7.18215L17.1263 5.75171C17.0229 5.13559 16.4929 4.6875 15.8682 4.6875H14.0543C13.4295 4.6875 12.8996 5.13559 12.7962 5.75171L12.5463 7.21662C12.0637 7.36741 11.5941 7.56561 11.146 7.80689L9.96116 6.95379C9.74573 6.79869 9.48722 6.71682 9.22009 6.71682C8.87971 6.71682 8.55657 6.85039 8.3196 7.09167L7.03135 8.37561C6.59188 8.81508 6.53156 9.50876 6.89347 10.0172L7.75518 11.2279C7.51821 11.6803 7.32864 12.1499 7.18215 12.6368L5.75171 12.878C5.13559 12.9814 4.6875 13.5114 4.6875 14.1361V15.95C4.6875 16.5748 5.13559 17.1047 5.75171 17.2081L7.21662 17.458C7.36741 17.9406 7.56561 18.4102 7.80689 18.8583L6.9581 20.0388C6.59619 20.5473 6.6522 21.2409 7.09598 21.6804L8.37992 22.9643C8.6212 23.2056 8.94003 23.3392 9.28041 23.3392C9.54754 23.3392 9.80174 23.2573 10.0172 23.1022L11.2279 22.2405C11.663 22.4689 12.1197 22.6541 12.5894 22.8006L12.8306 24.2483C12.9341 24.8644 13.464 25.3125 14.0887 25.3125H15.9069C16.5317 25.3125 17.0616 24.8644 17.165 24.2483L17.4106 22.8006C17.8975 22.6498 18.3671 22.4559 18.8152 22.219L20.0087 23.0721C20.2241 23.2272 20.4826 23.309 20.7498 23.309C21.0901 23.309 21.409 23.1755 21.6502 22.9342L22.9342 21.6502C23.3737 21.2108 23.434 20.5171 23.0721 20.0087L22.219 18.8109C22.4559 18.3585 22.6541 17.8889 22.8006 17.4063L24.2483 17.165C24.8644 17.0616 25.3125 16.5317 25.3125 15.9069V14.0931C25.3211 13.4683 24.873 12.9384 24.2569 12.835ZM24.1578 15.9069C24.1578 15.963 24.119 16.0104 24.063 16.019L22.2534 16.3206C22.0251 16.3593 21.8441 16.5274 21.7881 16.7471C21.6244 17.3805 21.3745 17.988 21.0384 18.5524C20.9221 18.7506 20.9307 18.9962 21.0643 19.1858L22.1285 20.6851C22.1586 20.7282 22.1543 20.7928 22.1156 20.8316L20.8316 22.1156C20.8015 22.1457 20.7713 22.15 20.7498 22.15C20.7239 22.15 20.7024 22.1414 20.6851 22.1285L19.1901 21.0643C19.0048 20.9307 18.7549 20.9221 18.5567 21.0384C17.9923 21.3745 17.3848 21.6244 16.7514 21.7881C16.5274 21.8441 16.3593 22.0294 16.3249 22.2534L16.019 24.063C16.0104 24.119 15.963 24.1578 15.9069 24.1578H14.0931C14.037 24.1578 13.9896 24.119 13.981 24.063L13.6794 22.2534C13.6407 22.0251 13.4726 21.8441 13.2529 21.7881C12.6368 21.6287 12.0422 21.3831 11.4864 21.0643C11.3959 21.0126 11.2925 20.9867 11.1934 20.9867C11.0771 20.9867 10.9564 21.0212 10.8573 21.0944L9.34934 22.1673C9.3278 22.1802 9.30626 22.1888 9.28472 22.1888C9.26748 22.1888 9.23301 22.1845 9.20285 22.1543L7.91891 20.8704C7.88013 20.8316 7.87582 20.7713 7.90598 20.7239L8.96588 19.2375C9.09945 19.0479 9.10807 18.798 8.99174 18.5998C8.65567 18.0397 8.39716 17.4322 8.23343 16.7988C8.17311 16.5791 7.99215 16.411 7.76811 16.3723L5.94559 16.0621C5.88958 16.0534 5.85081 16.006 5.85081 15.95V14.1361C5.85081 14.0801 5.88958 14.0327 5.94559 14.0241L7.74226 13.7225C7.97061 13.6837 8.15588 13.5157 8.21189 13.2917C8.37131 12.6583 8.61689 12.0465 8.94865 11.4821C9.06498 11.2839 9.05205 11.0383 8.91849 10.853L7.84566 9.34504C7.8155 9.30195 7.81981 9.23732 7.85859 9.19855L9.14253 7.9146C9.17269 7.88444 9.20285 7.88013 9.2244 7.88013C9.25025 7.88013 9.27179 7.88875 9.28903 7.90167L10.7755 8.96158C10.965 9.09514 11.2149 9.10376 11.4131 8.98743C11.9732 8.65136 12.5808 8.39285 13.2141 8.22912C13.4338 8.1688 13.6019 7.98784 13.6407 7.7638L13.9509 5.94129C13.9595 5.88528 14.0069 5.8465 14.0629 5.8465H15.8768C15.9328 5.8465 15.9802 5.88528 15.9888 5.94129L16.2904 7.73795C16.3292 7.9663 16.4972 8.15157 16.7213 8.20758C17.3719 8.37131 17.9923 8.62551 18.5696 8.96588C18.7678 9.08222 19.0134 9.0736 19.203 8.94003L20.6894 7.87151C20.711 7.85859 20.7325 7.84997 20.7541 7.84997C20.7713 7.84997 20.8058 7.85428 20.8359 7.88444L22.1199 9.16839C22.1586 9.20716 22.163 9.26748 22.1328 9.31488L21.0686 10.8099C20.935 10.9952 20.9264 11.2451 21.0427 11.4433C21.3788 12.0077 21.6287 12.6152 21.7924 13.2486C21.8484 13.4726 22.0337 13.6407 22.2577 13.6751L24.0673 13.981C24.1233 13.9896 24.1621 14.037 24.1621 14.0931V15.9069H24.1578Z" fill="white" stroke="white" stroke-width="0.2"/>
<path d="M15.002 10.5469C12.5461 10.5469 10.5513 12.5417 10.5513 14.9976C10.5513 17.4535 12.5461 19.4483 15.002 19.4483C17.4579 19.4483 19.4527 17.4535 19.4527 14.9976C19.4527 12.5417 17.4579 10.5469 15.002 10.5469ZM15.002 18.285C13.1881 18.285 11.7146 16.8115 11.7146 14.9976C11.7146 13.1837 13.1881 11.7102 15.002 11.7102C16.8159 11.7102 18.2894 13.1837 18.2894 14.9976C18.2894 16.8115 16.8159 18.285 15.002 18.285Z" fill="white" stroke="white" stroke-width="0.2"/>
</svg>
