<svg width="19" height="12" viewBox="0 0 19 12" fill="none" xmlns="http://www.w3.org/2000/svg">
<path fill-rule="evenodd" clip-rule="evenodd" d="M5.66147 0.338074L3.89417 2.10538C3.70756 2.29198 3.70758 2.59451 3.89417 2.7811C4.08075 2.96769 4.38328 2.96771 4.56989 2.7811L5.52207 1.82892L5.52205 11.3234C5.52206 11.5877 5.73626 11.8019 6.00049 11.8019C6.13259 11.8019 6.25223 11.7483 6.33881 11.6617C6.42538 11.5752 6.47895 11.4555 6.47895 11.3234L6.47896 1.83129L7.42877 2.7811C7.61536 2.96769 7.91789 2.96771 8.10449 2.7811C8.2911 2.59449 8.29108 2.29197 8.10449 2.10538L6.33719 0.338074C6.1506 0.151485 5.84807 0.151467 5.66147 0.338074Z" fill="#687C92"/>
<path fill-rule="evenodd" clip-rule="evenodd" d="M12.776 11.6619L14.5433 9.89462C14.7299 9.70802 14.7299 9.40549 14.5433 9.2189C14.3567 9.03231 14.0542 9.03229 13.8676 9.2189L12.9154 10.1711L12.9155 0.676569C12.9154 0.412344 12.7012 0.198142 12.437 0.198127C12.3049 0.198127 12.1853 0.251683 12.0987 0.338265C12.0121 0.42483 11.9585 0.544453 11.9585 0.676589L11.9585 10.1687L11.0087 9.2189C10.8221 9.03231 10.5196 9.03229 10.333 9.2189C10.1464 9.40551 10.1464 9.70803 10.333 9.89462L12.1003 11.6619C12.2869 11.8485 12.5894 11.8485 12.776 11.6619Z" fill="#687C92"/>
</svg>
