<svg width="17" height="16" viewBox="0 0 17 16" fill="none" xmlns="http://www.w3.org/2000/svg">
<path d="M13.9607 5.58424C13.9553 5.58424 13.9499 5.5864 13.9446 5.5864C13.7727 2.50972 11.1685 0 8.05428 0C4.94001 0 2.33568 2.50972 2.16393 5.5864C2.15857 5.5864 2.1532 5.58424 2.14783 5.58424C0.966501 5.58424 0 6.55074 0 7.73207V9.87984C0 11.0611 0.966501 12.0276 2.14777 12.0276C3.32903 12.0276 4.29553 11.0611 4.29553 9.87984V7.73207C4.29553 6.9438 3.86063 6.25976 3.22381 5.88602C3.2356 3.21097 5.37701 1.07388 8.05415 1.07388C10.7313 1.07388 12.8727 3.21091 12.8845 5.88602C12.2477 6.2597 11.8128 6.94485 11.8128 7.73207V9.87984C11.8128 10.7067 12.2917 11.4209 12.9812 11.7785C12.3884 12.5066 11.2254 13.646 9.65748 13.8253C9.41803 13.2271 8.82416 12.7783 8.16154 12.7783C7.30242 12.7783 6.55068 13.53 6.55068 14.3891C6.55068 15.2483 7.30242 16 8.16154 16C8.92827 16 9.48672 15.5242 9.68648 14.8993C12.0888 14.678 13.6363 12.7579 14.1764 12.0051C15.2557 11.8945 16.1084 10.9871 16.1084 9.8799V7.73213C16.1084 6.55074 15.1419 5.58424 13.9607 5.58424ZM3.22171 9.87984C3.22171 10.5242 2.79218 10.9537 2.14783 10.9537C1.50347 10.9537 1.07394 10.5242 1.07394 9.87984V7.73207C1.07394 7.08771 1.50347 6.65819 2.14783 6.65819C2.79218 6.65819 3.22171 7.08771 3.22171 7.73207V9.87984ZM8.1616 14.9272C7.83945 14.9272 7.62462 14.7124 7.62462 14.3902C7.62462 14.068 7.83939 13.8532 8.1616 13.8532C8.48374 13.8532 8.69857 14.068 8.69857 14.3902C8.69857 14.7123 8.48374 14.9272 8.1616 14.9272ZM15.0345 9.87984C15.0345 10.5242 14.605 10.9537 13.9607 10.9537C13.3163 10.9537 12.8868 10.5242 12.8868 9.87984V7.73207C12.8868 7.08771 13.3163 6.65819 13.9607 6.65819C14.605 6.65819 15.0345 7.08771 15.0345 7.73207V9.87984Z" fill="#2CCDA0"/>
</svg>
