<svg width="30" height="30" viewBox="0 0 30 30" fill="none" xmlns="http://www.w3.org/2000/svg">
<path fill-rule="evenodd" clip-rule="evenodd" d="M22.4559 6.78909C23.0124 6.6224 23.5501 6.39732 24.0598 6.1174C24.4294 5.88225 24.9055 5.88951 25.2685 6.13939C25.6431 6.39723 25.8194 6.85973 25.7114 7.30149C25.7082 7.31475 25.7046 7.32791 25.7005 7.34096C25.6706 7.43764 25.6376 7.53322 25.6016 7.62756C25.7381 7.68596 25.8642 7.77277 25.9704 7.88644C25.9789 7.89548 25.9871 7.90475 25.995 7.91424C26.2896 8.26633 26.3333 8.76475 26.1046 9.16274C26.0985 9.17336 26.0921 9.18382 26.0854 9.19409C25.5923 9.9529 24.9873 10.6319 24.2914 11.2083C24.3451 14.3497 23.18 17.3954 21.0332 19.7013C18.7906 22.2955 15.5394 23.7988 12.11 23.8268L12.1085 23.8268C9.69463 23.8413 7.32109 23.2076 5.23576 21.9916C4.78517 21.7317 4.57949 21.1905 4.74408 20.6967C4.90844 20.2036 5.39659 19.8942 5.91224 19.9555C6.9275 20.0678 7.94908 19.9591 8.9088 19.6436C7.8247 18.9996 6.9532 18.0296 6.43209 16.8526L6.42639 16.8394C6.28339 16.4968 6.32484 16.1089 6.52807 15.8067C5.64982 14.8339 5.13742 13.567 5.11079 12.2286C5.0839 11.8018 5.3082 11.3991 5.68278 11.1966C5.24053 9.82402 5.38391 8.30314 6.12763 7.01525L6.71115 7.35221L6.12672 7.01683C6.30891 6.69936 6.63766 6.49389 7.00286 6.46924C7.03251 6.46724 7.06225 6.4672 7.0919 6.46913C7.42999 6.49109 7.73914 6.66472 7.93392 6.94002C9.5356 8.90225 11.7992 10.1974 14.2841 10.5924C14.3019 10.0488 14.3855 9.45012 14.5725 8.86752C14.8602 7.9709 15.4103 7.06569 16.3889 6.50664C17.2431 5.95284 18.2346 5.64755 19.2527 5.62517L19.2664 5.62501C20.4381 5.6231 21.5675 6.0384 22.4559 6.78909ZM6.49808 12.6997C6.66024 13.8494 7.29865 14.8882 8.27068 15.5513C8.54347 15.7374 8.6412 16.0938 8.5015 16.393C8.39088 16.6299 8.1572 16.7757 7.90691 16.7817C8.53153 17.8523 9.55206 18.6456 10.7596 18.9812C11.0211 19.0539 11.2134 19.2763 11.2476 19.5455C11.2818 19.8147 11.1512 20.0782 10.9162 20.2139C9.68823 20.9233 8.30695 21.3089 6.90125 21.3436C8.52466 22.1002 10.2999 22.49 12.1001 22.4792C15.1455 22.454 18.0322 21.1172 20.0213 18.8111C20.027 18.8045 20.0329 18.798 20.0389 18.7916C22.0232 16.6647 23.067 13.8281 22.9343 10.9223C22.9242 10.7017 23.0229 10.4902 23.1983 10.3562C23.6589 10.0042 24.077 9.60127 24.4447 9.15562C24.1851 9.19635 23.9223 9.08189 23.7763 8.8581C23.617 8.6141 23.6327 8.2954 23.815 8.06816C23.9362 7.91713 24.0441 7.75641 24.1376 7.58783C23.5927 7.84135 23.0247 8.04335 22.4411 8.19088C22.2116 8.2489 21.9685 8.18224 21.8007 8.01529C21.1297 7.34769 20.2218 6.97291 19.2754 6.97265C18.5044 6.99089 17.7537 7.22425 17.1082 7.64646C17.0957 7.65462 17.083 7.66236 17.07 7.66967C16.4599 8.01326 16.0758 8.59351 15.8556 9.27936C15.6341 9.96957 15.5965 10.7185 15.6491 11.2937C15.6673 11.4921 15.5967 11.6884 15.4563 11.8298C15.3159 11.9713 15.1201 12.0433 14.9215 12.0265C11.8942 11.7712 9.09225 10.3421 7.10946 8.05327C6.57438 9.26003 6.69522 10.67 7.45235 11.7747C7.63486 12.041 7.60286 12.3993 7.37606 12.629C7.14926 12.8588 6.79138 12.8954 6.52277 12.7163C6.51455 12.7108 6.50632 12.7053 6.49808 12.6997ZM12.1045 23.1529L12.1045 23.153L12.1045 23.1529C7.3664 16.66 7.36422 16.6593 7.36205 16.6586L7.36858 16.6606" fill="white"/>
</svg>
