<svg width="14" height="16" viewBox="0 0 14 16" fill="none" xmlns="http://www.w3.org/2000/svg">
<path d="M7.17631 15.1C7.38887 15.1 7.55951 14.9294 7.55951 14.7168V4.65705L9.50282 6.60035C9.65344 6.75097 9.89411 6.75097 10.0447 6.60035C10.1953 6.44973 10.1953 6.20906 10.0447 6.05844L7.44726 3.46098C7.37347 3.38718 7.27335 3.34873 7.17631 3.34873C7.07926 3.34873 6.97915 3.38718 6.90535 3.46098L4.30789 6.05844C4.15727 6.20906 4.15727 6.44973 4.30789 6.60035C4.4585 6.75097 4.69918 6.75097 4.8498 6.60035L6.7931 4.65705V14.7168C6.7931 14.9294 6.96374 15.1 7.17631 15.1Z" fill="#2CCDA0" stroke="#2CCDA0" stroke-width="0.2"/>
<path d="M13.0691 4.60428C13.2816 4.60428 13.4523 4.43365 13.4523 4.22108V1.2832C13.4523 1.07064 13.2816 0.9 13.0691 0.9H1.2832C1.07064 0.9 0.9 1.07064 0.9 1.2832V4.22394C0.9 4.43651 1.07064 4.60715 1.2832 4.60715C1.49577 4.60715 1.66641 4.43651 1.66641 4.22394V1.66641H12.6859V4.22394C12.6859 4.43431 12.8572 4.60428 13.0691 4.60428Z" fill="#2CCDA0" stroke="#2CCDA0" stroke-width="0.2"/>
</svg>
