<svg width="20" height="12" viewBox="0 0 20 12" fill="none" xmlns="http://www.w3.org/2000/svg">
<path fill-rule="evenodd" clip-rule="evenodd" d="M4.64037 2.09365C4.32479 2.48818 4.125 3.13684 4.125 4.125C4.125 5.56588 4.54971 6.23487 4.86849 6.61741C4.9436 6.70755 5.01465 6.78383 5.08656 6.86104C5.09786 6.87317 5.10918 6.88533 5.12055 6.89757C5.19471 6.97744 5.29199 7.08253 5.36395 7.19446C5.44056 7.31364 5.52632 7.49744 5.49658 7.72687C5.46791 7.9481 5.34416 8.11295 5.22855 8.22855C4.85988 8.59723 4.41334 8.86016 3.98533 9.07417C3.77031 9.18168 3.55172 9.28074 3.34546 9.37416L3.34251 9.37549C3.1342 9.46985 2.93916 9.55819 2.75486 9.65034C2.37933 9.8381 2.09686 10.019 1.90744 10.2303C1.83447 10.3116 1.77312 10.3999 1.72645 10.5H11.125V11.5H0.625V11C0.625 10.404 0.829495 9.93455 1.16287 9.56271C1.48126 9.20759 1.90192 8.95877 2.30764 8.75591C2.50925 8.65511 2.71922 8.56001 2.9213 8.46848L2.93286 8.46324C3.14164 8.36868 3.34297 8.27731 3.53811 8.17974C3.88148 8.00805 4.18073 7.82896 4.42192 7.61508C4.41154 7.60373 4.40019 7.59141 4.38775 7.57802C4.37792 7.56742 4.36758 7.55633 4.3568 7.54477C4.28536 7.46813 4.19444 7.3706 4.10026 7.25759C3.63779 6.70263 3.125 5.80912 3.125 4.125C3.125 3.03003 3.34177 2.1162 3.85947 1.469C4.39422 0.800492 5.1812 0.5 6.125 0.5C7.0688 0.5 7.85578 0.800492 8.39053 1.469C8.90823 2.1162 9.125 3.03003 9.125 4.125C9.125 5.80912 8.61221 6.70263 8.14974 7.25759C8.05556 7.3706 7.96464 7.46814 7.8932 7.54477C7.88242 7.55634 7.87208 7.56742 7.86225 7.57802C7.84981 7.59141 7.83846 7.60373 7.82808 7.61508C8.07115 7.83063 8.37312 8.01079 8.71969 8.18364C8.91627 8.28168 9.11885 8.37343 9.32898 8.46861C9.53613 8.56243 9.75236 8.66037 9.95903 8.76427L9.50987 9.65772C9.32438 9.56447 9.12752 9.47515 8.91707 9.37983L8.90848 9.37594C8.70375 9.28321 8.48678 9.18494 8.27338 9.07852C7.84262 8.86368 7.39254 8.59965 7.02145 8.22855C6.90584 8.11295 6.78209 7.9481 6.75342 7.72687C6.72368 7.49744 6.80944 7.31364 6.88605 7.19446C6.95801 7.08253 7.05529 6.97744 7.12945 6.89757C7.14082 6.88533 7.15214 6.87317 7.16345 6.86103C7.23535 6.78383 7.3064 6.70755 7.38151 6.61741C7.70029 6.23487 8.125 5.56588 8.125 4.125C8.125 3.13684 7.92521 2.48818 7.60963 2.09365C7.31109 1.72045 6.84807 1.5 6.125 1.5C5.40193 1.5 4.93891 1.72045 4.64037 2.09365Z" fill="#2CCDA0"/>
<path fill-rule="evenodd" clip-rule="evenodd" d="M12.1404 2.09365C11.8248 2.48818 11.625 3.13684 11.625 4.125C11.625 5.56588 12.0497 6.23487 12.3685 6.61741C12.4436 6.70755 12.5147 6.78383 12.5866 6.86104C12.5979 6.87317 12.6092 6.88533 12.6205 6.89757C12.6947 6.97744 12.792 7.08253 12.8639 7.19446C12.9406 7.31364 13.0263 7.49744 12.9966 7.72687C12.9679 7.9481 12.8442 8.11295 12.7286 8.22855C12.3599 8.59723 11.9133 8.86016 11.4853 9.07417C11.2703 9.18168 11.0517 9.28074 10.8455 9.37416L10.8425 9.37549C10.6342 9.46985 10.4392 9.55819 10.2549 9.65034C9.87933 9.8381 9.59686 10.019 9.40744 10.2303C9.33447 10.3116 9.27312 10.3999 9.22645 10.5H18.0236C17.9769 10.3999 17.9155 10.3116 17.8426 10.2303C17.6531 10.019 17.3707 9.8381 16.9951 9.65034C16.8108 9.55819 16.6158 9.46985 16.4075 9.37549L16.4045 9.37416C16.1983 9.28074 15.9797 9.18168 15.7647 9.07417C15.3367 8.86016 14.8901 8.59723 14.5214 8.22855C14.4058 8.11295 14.2821 7.9481 14.2534 7.72687C14.2237 7.49744 14.3094 7.31364 14.3861 7.19446C14.458 7.08253 14.5553 6.97744 14.6295 6.89757C14.6408 6.88533 14.6521 6.87317 14.6634 6.86103C14.7354 6.78383 14.8064 6.70755 14.8815 6.61741C15.2003 6.23487 15.625 5.56588 15.625 4.125C15.625 3.13684 15.4252 2.48818 15.1096 2.09365C14.8111 1.72045 14.3481 1.5 13.625 1.5C12.9019 1.5 12.4389 1.72045 12.1404 2.09365ZM11.3595 1.469C11.8942 0.800492 12.6812 0.5 13.625 0.5C14.5688 0.5 15.3558 0.800492 15.8905 1.469C16.4082 2.1162 16.625 3.03003 16.625 4.125C16.625 5.80912 16.1122 6.70263 15.6497 7.25759C15.5556 7.3706 15.4646 7.46814 15.3932 7.54477C15.3824 7.55634 15.3721 7.56742 15.3622 7.57802C15.3498 7.59141 15.3385 7.60373 15.3281 7.61508C15.5693 7.82896 15.8685 8.00805 16.2119 8.17974C16.407 8.27731 16.6084 8.36868 16.8171 8.46324L16.8287 8.46849C17.0308 8.56001 17.2408 8.65511 17.4424 8.75591C17.8481 8.95877 18.2687 9.20759 18.5871 9.56271C18.9205 9.93455 19.125 10.404 19.125 11V11.5H8.125V11C8.125 10.404 8.3295 9.93455 8.66287 9.56271C8.98126 9.20759 9.40192 8.95877 9.80764 8.75591C10.0093 8.65511 10.2192 8.56001 10.4213 8.46848L10.4329 8.46324C10.6416 8.36868 10.843 8.27731 11.0381 8.17974C11.3815 8.00805 11.6807 7.82896 11.9219 7.61508C11.9115 7.60373 11.9002 7.59141 11.8878 7.57802C11.8779 7.56742 11.8676 7.55633 11.8568 7.54477C11.7854 7.46813 11.6944 7.3706 11.6003 7.25759C11.1378 6.70263 10.625 5.80912 10.625 4.125C10.625 3.03003 10.8418 2.1162 11.3595 1.469Z" fill="#2CCDA0"/>
</svg>
