<svg width="16" height="10" viewBox="0 0 16 10" fill="none" xmlns="http://www.w3.org/2000/svg">
<path fill-rule="evenodd" clip-rule="evenodd" d="M1.89002 0.850509H9.4501C10.0242 0.850509 10.4896 1.31591 10.4896 1.89002V7.56008C10.4896 8.13419 10.0242 8.59959 9.4501 8.59959H1.89002C1.31591 8.59959 0.850509 8.13419 0.850509 7.56008V1.89002C0.850509 1.31591 1.31591 0.850509 1.89002 0.850509ZM0 1.89002C0 0.846191 0.846191 0 1.89002 0H9.4501C10.4939 0 11.3401 0.846191 11.3401 1.89002V3.73254L14.4147 0.657969C14.9997 0.0729547 16 0.487284 16 1.31462V8.0405C16 8.86784 14.9997 9.28217 14.4147 8.69715L11.3401 5.62258V7.56008C11.3401 8.60391 10.4939 9.4501 9.4501 9.4501H1.89002C0.846191 9.4501 0 8.60391 0 7.56008V1.89002ZM15.0057 8.10616L11.6427 4.74323C11.6065 4.70696 11.6065 4.64816 11.6427 4.6119L15.0057 1.24896C15.0286 1.22601 15.0437 1.22236 15.0519 1.22094C15.0646 1.21873 15.0844 1.21952 15.1069 1.22883C15.1293 1.23813 15.1439 1.25157 15.1514 1.26216C15.1561 1.26895 15.1642 1.28217 15.1642 1.31462V8.0405C15.1642 8.07295 15.1561 8.08617 15.1514 8.09296C15.1439 8.10355 15.1293 8.11699 15.1069 8.12629C15.0844 8.1356 15.0646 8.13639 15.0519 8.13418C15.0437 8.13276 15.0286 8.12911 15.0057 8.10616Z" fill="#2CCDA0"/>
</svg>
