<svg width="20" height="24" viewBox="0 0 20 24" fill="none" xmlns="http://www.w3.org/2000/svg">
<path d="M17 1H3C1.89543 1 1 1.89543 1 3V20.8087C1 21.9133 1.89543 22.8087 3 22.8087H17C18.1046 22.8087 19 21.9133 19 20.8087V3C19 1.89543 18.1046 1 17 1Z" stroke="#2CCDA0" stroke-width="0.8"/>
<path fill-rule="evenodd" clip-rule="evenodd" d="M12.8125 11.1752V9.2502C12.8125 8.9477 12.5594 8.7002 12.25 8.7002H5.5C5.19063 8.7002 4.9375 8.9477 4.9375 9.2502V14.7502C4.9375 15.0527 5.19063 15.3002 5.5 15.3002H12.25C12.5594 15.3002 12.8125 15.0527 12.8125 14.7502V12.8252L14.7227 14.6929C14.8493 14.8167 15.0625 14.727 15.0625 14.5499V9.45047C15.0625 9.27337 14.8493 9.18365 14.7227 9.30747L12.8125 11.1752Z" fill="#2CCDA0"/>
</svg>
