<svg width="20" height="20" viewBox="0 0 20 20" fill="none" xmlns="http://www.w3.org/2000/svg">
<path fill-rule="evenodd" clip-rule="evenodd" d="M10 1.6998C5.4162 1.6998 1.70005 5.41645 1.70005 10.0014V16.8995L2.87632 15.6333C3.00898 15.4904 3.19518 15.4094 3.39009 15.4097C3.58501 15.4099 3.771 15.4914 3.90328 15.6346C5.42056 17.2765 7.58993 18.303 10 18.303C14.5839 18.303 18.3 14.5864 18.3 10.0014C18.3 5.41645 14.5839 1.6998 10 1.6998ZM0.300049 10.0014C0.300049 4.64349 4.64277 0.299805 10 0.299805C15.3573 0.299805 19.7 4.64349 19.7 10.0014C19.7 15.3594 15.3573 19.703 10 19.703C7.45462 19.703 5.13753 18.7217 3.40772 17.1182L1.51291 19.158C1.31702 19.3689 1.01202 19.4383 0.744122 19.3331C0.476227 19.2279 0.300049 18.9694 0.300049 18.6816V10.0014Z" fill="#748AA1"/>
<path fill-rule="evenodd" clip-rule="evenodd" d="M10.3085 6.21109C9.63663 6.1607 8.96736 6.2959 8.37168 6.59719C8.0267 6.77168 7.60559 6.63347 7.4311 6.28849C7.25661 5.94351 7.39482 5.52239 7.7398 5.3479C8.5618 4.93214 9.48562 4.74545 10.4132 4.81501C11.5877 4.9031 12.6951 5.39657 13.5468 6.211C14.3985 7.02539 14.9419 8.11031 15.0847 9.28077C15.2003 10.2285 15.0475 11.185 14.6505 12.0433C14.4881 12.3941 14.0721 12.547 13.7212 12.3847C13.3704 12.2224 13.2175 11.8063 13.3798 11.4555C13.668 10.8326 13.7789 10.1383 13.695 9.4503C13.5913 8.60057 13.1969 7.81342 12.5793 7.22287C11.9617 6.63234 11.1592 6.2749 10.3085 6.21109Z" fill="#748AA1"/>
<path fill-rule="evenodd" clip-rule="evenodd" d="M12.8545 9.96908C13.2126 9.82428 13.6204 9.99774 13.7655 10.3565L14.1609 11.3342L15.1363 10.9386C15.4942 10.7935 15.9022 10.9665 16.0477 11.3251C16.1931 11.6837 16.0209 12.0921 15.663 12.2373L14.0389 12.896C13.8669 12.9657 13.6742 12.9641 13.5032 12.8915C13.3322 12.8189 13.197 12.6812 13.1273 12.5088L12.4689 10.8808C12.3238 10.5221 12.4965 10.1139 12.8545 9.96908Z" fill="#748AA1"/>
<path fill-rule="evenodd" clip-rule="evenodd" d="M9.6114 14.0163C10.2824 14.0766 10.9536 13.9512 11.5537 13.6586C11.9013 13.4892 12.3203 13.6336 12.4896 13.9811C12.659 14.3286 12.5145 14.7476 12.1669 14.917C11.3388 15.3207 10.4123 15.4939 9.48592 15.4107C8.31288 15.3055 7.21292 14.7958 6.3734 13.969C5.5339 13.1422 5.00675 12.0495 4.88141 10.8771C4.77992 9.9278 4.94689 8.97364 5.3567 8.12123C5.52422 7.77278 5.94248 7.62603 6.2909 7.79347C6.63931 7.96091 6.78596 8.37913 6.61843 8.72759C6.32103 9.34618 6.1998 10.0388 6.27348 10.7279C6.36448 11.5791 6.74713 12.3719 7.35589 12.9714C7.96462 13.5709 8.76175 13.9401 9.6114 14.0163Z" fill="#748AA1"/>
<path fill-rule="evenodd" clip-rule="evenodd" d="M7.12048 10.2208C6.7603 10.3603 6.35504 10.1808 6.21531 9.81995L5.83456 8.83665L4.85352 9.21789C4.4935 9.35779 4.08803 9.17881 3.94787 8.81814C3.80771 8.45746 3.98595 8.05166 4.34596 7.91176L5.97966 7.27691C6.15268 7.20967 6.34539 7.2141 6.51532 7.28923C6.68525 7.36436 6.81846 7.50402 6.88561 7.67744L7.51966 9.31489C7.65939 9.67574 7.48067 10.0813 7.12048 10.2208Z" fill="#748AA1"/>
</svg>
