<svg width="20" height="20" viewBox="0 0 20 20" fill="none" xmlns="http://www.w3.org/2000/svg">
<path d="M10.2769 1C7.08777 1 4.49316 3.59507 4.49316 6.78479C4.49316 8.62056 5.3585 10.3336 6.82207 11.4243V11.9074C6.46563 12.2207 6.23998 12.6796 6.23998 13.1904C6.23998 13.6402 6.41495 14.0498 6.70004 14.3552C6.41495 14.6606 6.23998 15.0701 6.23998 15.5199C6.23998 16.2861 6.7469 16.9361 7.44308 17.1519C7.66702 18.5145 8.85214 19.5576 10.2769 19.5576C11.7017 19.5576 12.887 18.5145 13.1109 17.1519C13.8069 16.936 14.314 16.2861 14.314 15.5198C14.314 15.0701 14.139 14.6605 13.8539 14.3551C14.139 14.0497 14.314 13.6402 14.314 13.1904C14.314 12.6796 14.0884 12.2207 13.7318 11.9073V11.4243C15.1953 10.3336 16.0607 8.62056 16.0607 6.78479C16.0607 3.59507 13.4661 1 10.2769 1ZM12.606 12.5694C12.9482 12.5694 13.2268 12.8481 13.2268 13.1904C13.2268 13.5329 12.9482 13.8116 12.606 13.8116H7.94801C7.60559 13.8116 7.327 13.5329 7.327 13.1904C7.327 12.8481 7.60559 12.5694 7.94801 12.5694H12.606ZM10.2769 18.4702C9.48193 18.4702 8.8067 17.9478 8.5761 17.2282H11.9777C11.7473 17.9479 11.0719 18.4702 10.2769 18.4702ZM12.606 16.1409H7.94801C7.60559 16.1409 7.327 15.8622 7.327 15.5199C7.327 15.1774 7.60559 14.8989 7.94801 14.8989H12.606C12.9482 14.8989 13.2268 15.1774 13.2268 15.5199C13.2268 15.8622 12.9482 16.1409 12.606 16.1409ZM12.8858 10.6912C12.7351 10.7922 12.6446 10.9616 12.6446 11.143V11.4831C12.6317 11.4828 12.6188 11.4821 12.606 11.4821H11.9849V9.33938L12.7655 8.55869C12.9778 8.34631 12.9778 8.00212 12.7655 7.78975C12.5533 7.57738 12.209 7.57738 11.9968 7.78975L11.057 8.72972C10.9551 8.83166 10.8978 8.96984 10.8978 9.11412V11.4821H9.65605V9.11412C9.65605 8.96999 9.59872 8.83166 9.49679 8.72972L8.55699 7.78975C8.3448 7.57752 8.00067 7.57752 7.78834 7.78975C7.576 8.00212 7.576 8.34631 7.78834 8.55869L8.56889 9.33938V11.4822H7.94801C7.93499 11.4822 7.92211 11.4828 7.90923 11.4831V11.143C7.90923 10.9616 7.81877 10.7922 7.66801 10.6912C6.36087 9.81594 5.58033 8.35566 5.58033 6.78479C5.58033 4.19454 7.68727 2.08736 10.2769 2.08736C12.8666 2.08736 14.9735 4.19454 14.9735 6.78479C14.9735 8.35566 14.193 9.81594 12.8858 10.6912Z" fill="#293248"/>
<path d="M3.25162 6.78391C3.25162 6.48361 3.00828 6.24023 2.70804 6.24023H1.54358C1.24334 6.24023 1 6.48361 1 6.78391C1 7.08406 1.24334 7.32758 1.54358 7.32758H2.70804C3.00828 7.32758 3.25162 7.08406 3.25162 6.78391Z" fill="#293248"/>
<path d="M19.0106 6.24023H17.8462C17.5461 6.24023 17.3026 6.48361 17.3026 6.78391C17.3026 7.08406 17.5461 7.32758 17.8462 7.32758H19.0106C19.3109 7.32758 19.5542 7.08406 19.5542 6.78391C19.5542 6.48361 19.3109 6.24023 19.0106 6.24023Z" fill="#293248"/>
<path d="M3.4504 10.1002L2.44195 10.6826C2.18205 10.8328 2.09301 11.1653 2.24306 11.4254C2.34371 11.5998 2.52646 11.6972 2.7143 11.6972C2.80646 11.6972 2.90003 11.6739 2.98553 11.6243L3.99399 11.0421C4.25403 10.8919 4.34307 10.5594 4.19302 10.2993C4.04297 10.0392 3.71045 9.95016 3.4504 10.1002Z" fill="#293248"/>
<path d="M16.8322 3.54199C16.9243 3.54199 17.0177 3.51849 17.1034 3.46908L18.112 2.8866C18.3719 2.73652 18.4611 2.40408 18.3109 2.14399C18.1607 1.88391 17.8283 1.79485 17.5684 1.94507L16.5598 2.5274C16.2999 2.67748 16.2107 3.01006 16.3609 3.27001C16.4616 3.44444 16.6443 3.54199 16.8322 3.54199Z" fill="#293248"/>
<path d="M18.1119 10.6824L17.1034 10.1002C16.8434 9.95016 16.5109 10.0392 16.3608 10.2993C16.2108 10.5593 16.3 10.8919 16.5598 11.0419L17.5684 11.6241C17.6539 11.6735 17.7474 11.6971 17.8397 11.6971C18.0275 11.6971 18.2103 11.5995 18.3109 11.4251C18.4611 11.1651 18.3719 10.8325 18.1119 10.6824Z" fill="#293248"/>
<path d="M3.99405 2.52723L2.98559 1.94503C2.72555 1.79481 2.39317 1.88401 2.24312 2.1441C2.09293 2.40419 2.18211 2.73663 2.44201 2.88671L3.45047 3.46905C3.53611 3.51846 3.62954 3.54196 3.72169 3.54196C3.90968 3.54196 4.09229 3.44441 4.19308 3.26998C4.34313 3.00989 4.25395 2.67745 3.99405 2.52723Z" fill="#293248"/>
</svg>
